  0
SECTION
  2
HEADER
  9
$ACADVER
  1
AC1009
  9
$DWGCODEPAGE
  3
ansi_1252
  9
$INSBASE
 10
0.0
 20
0.0
 30
0.0
  9
$EXTMIN
 10
4.023081001002916
 20
0.8362369337979094
 30
0.0
  9
$EXTMAX
 10
64.02308100100292
 20
51.9076449669458
 30
0.0
  9
$LIMMIN
 10
0.0
 20
0.0
  9
$LIMMAX
 10
12.0
 20
9.0
  9
$ORTHOMODE
 70
     0
  9
$REGENMODE
 70
     1
  9
$FILLMODE
 70
     1
  9
$QTEXTMODE
 70
     0
  9
$MIRRTEXT
 70
     1
  9
$DRAGMODE
 70
     2
  9
$LTSCALE
 40
1.0
  9
$OSMODE
 70
    37
  9
$ATTMODE
 70
     1
  9
$TEXTSIZE
 40
0.2
  9
$TRACEWID
 40
0.05
  9
$TEXTSTYLE
  7
STANDARD
  9
$CLAYER
  8
0
  9
$CELTYPE
  6
BYLAYER
  9
$CECOLOR
 62
   256
  9
$DIMSCALE
 40
1.0
  9
$DIMASZ
 40
0.18
  9
$DIMEXO
 40
0.0625
  9
$DIMDLI
 40
0.38
  9
$DIMRND
 40
0.0
  9
$DIMDLE
 40
0.0
  9
$DIMEXE
 40
0.18
  9
$DIMTP
 40
0.0
  9
$DIMTM
 40
0.0
  9
$DIMTXT
 40
0.18
  9
$DIMCEN
 40
0.09
  9
$DIMTSZ
 40
0.0
  9
$DIMTOL
 70
     0
  9
$DIMLIM
 70
     0
  9
$DIMTIH
 70
     1
  9
$DIMTOH
 70
     1
  9
$DIMSE1
 70
     0
  9
$DIMSE2
 70
     0
  9
$DIMTAD
 70
     0
  9
$DIMZIN
 70
     0
  9
$DIMBLK
  1

  9
$DIMASO
 70
     1
  9
$DIMSHO
 70
     1
  9
$DIMPOST
  1

  9
$DIMAPOST
  1

  9
$DIMALT
 70
     0
  9
$DIMALTD
 70
     2
  9
$DIMALTF
 40
25.4
  9
$DIMLFAC
 40
1.0
  9
$DIMTOFL
 70
     0
  9
$DIMTVP
 40
0.0
  9
$DIMTIX
 70
     0
  9
$DIMSOXD
 70
     0
  9
$DIMSAH
 70
     0
  9
$DIMBLK1
  1

  9
$DIMBLK2
  1

  9
$DIMSTYLE
  2
STANDARD
  9
$DIMCLRD
 70
     0
  9
$DIMCLRE
 70
     0
  9
$DIMCLRT
 70
     0
  9
$DIMTFAC
 40
1.0
  9
$DIMGAP
 40
0.09
  9
$LUNITS
 70
     2
  9
$LUPREC
 70
     4
  9
$SKETCHINC
 40
0.1
  9
$FILLETRAD
 40
0.5
  9
$AUNITS
 70
     0
  9
$AUPREC
 70
     0
  9
$MENU
  1
.
  9
$ELEVATION
 40
0.0
  9
$PELEVATION
 40
0.0
  9
$THICKNESS
 40
0.0
  9
$LIMCHECK
 70
     0
  9
$CHAMFERA
 40
0.5
  9
$CHAMFERB
 40
0.5
  9
$SKPOLY
 70
     0
  9
$TDCREATE
 40
2454910.5
  9
$TDUPDATE
 40
2459295.038853646
  9
$TDINDWG
 40
0.0000000116
  9
$TDUSRTIMER
 40
0.0000000116
  9
$USRTIMER
 70
     1
  9
$ANGBASE
 50
0.0
  9
$ANGDIR
 70
     0
  9
$PDMODE
 70
     0
  9
$PDSIZE
 40
0.0
  9
$PLINEWID
 40
0.0
  9
$COORDS
 70
     1
  9
$SPLFRAME
 70
     0
  9
$SPLINETYPE
 70
     6
  9
$SPLINESEGS
 70
     8
  9
$ATTDIA
 70
     0
  9
$ATTREQ
 70
     1
  9
$HANDLING
 70
     1
  9
$HANDSEED
  5
4E7
  9
$SURFTAB1
 70
     6
  9
$SURFTAB2
 70
     6
  9
$SURFTYPE
 70
     6
  9
$SURFU
 70
     6
  9
$SURFV
 70
     6
  9
$UCSNAME
  2

  9
$UCSORG
 10
0.0
 20
0.0
 30
0.0
  9
$UCSXDIR
 10
1.0
 20
0.0
 30
0.0
  9
$UCSYDIR
 10
0.0
 20
1.0
 30
0.0
  9
$PUCSNAME
  2

  9
$PUCSORG
 10
0.0
 20
0.0
 30
0.0
  9
$PUCSXDIR
 10
1.0
 20
0.0
 30
0.0
  9
$PUCSYDIR
 10
0.0
 20
1.0
 30
0.0
  9
$USERI1
 70
     0
  9
$USERI2
 70
     0
  9
$USERI3
 70
     0
  9
$USERI4
 70
     0
  9
$USERI5
 70
     0
  9
$USERR1
 40
0.0
  9
$USERR2
 40
0.0
  9
$USERR3
 40
0.0
  9
$USERR4
 40
0.0
  9
$USERR5
 40
0.0
  9
$WORLDVIEW
 70
     1
  9
$SHADEDGE
 70
     3
  9
$SHADEDIF
 70
    70
  9
$TILEMODE
 70
     1
  9
$MAXACTVP
 70
    64
  9
$PLIMCHECK
 70
     0
  9
$PEXTMIN
 10
1.000000000000000E+20
 20
1.000000000000000E+20
 30
1.000000000000000E+20
  9
$PEXTMAX
 10
-1.000000000000000E+20
 20
-1.000000000000000E+20
 30
-1.000000000000000E+20
  9
$PLIMMIN
 10
0.0
 20
0.0
  9
$PLIMMAX
 10
12.0
 20
9.0
  9
$UNITMODE
 70
     0
  9
$VISRETAIN
 70
     1
  9
$PLINEGEN
 70
     0
  9
$PSLTSCALE
 70
     1
  0
ENDSEC
  0
SECTION
  2
TABLES
  0
TABLE
  2
VPORT
 70
     1
  0
VPORT
  2
*ACTIVE
 70
     0
 10
0.0
 20
0.0
 11
1.0
 21
1.0
 12
10.42990654205607
 22
4.5
 13
0.0
 23
0.0
 14
0.5
 24
0.5
 15
0.5
 25
0.5
 16
0.0
 26
0.0
 36
1.0
 17
0.0
 27
0.0
 37
0.0
 40
9.0
 41
1.972972972850329
 42
50.0
 43
0.0
 44
0.0
 50
0.0
 51
0.0
 71
     0
 72
   100
 73
     1
 74
     3
 75
     0
 76
     0
 77
     0
 78
     0
  0
ENDTAB
  0
TABLE
  2
LTYPE
 70
     2
  0
LTYPE
  2
CONTINUOUS
 70
     0
  3
Solid line
 72
    65
 73
     0
 40
0.0
  0
LTYPE
  2
CONTINUOUS2
 70
     0
  3
Solid Line
 72
    65
 73
     0
 40
0.0
  0
ENDTAB
  0
TABLE
  2
LAYER
 70
     2
  0
LAYER
  2
0
 70
     0
 62
     7
  6
CONTINUOUS
  0
LAYER
  2
LAYER_1
 70
     0
 62
    18
  6
CONTINUOUS
  0
ENDTAB
  0
TABLE
  2
STYLE
 70
     1
  0
STYLE
  2
STANDARD
 70
     0
 40
0.0
 41
1.0
 50
0.0
 71
     0
 42
0.2
  3
txt
  4

  0
ENDTAB
  0
TABLE
  2
VIEW
 70
     0
  0
ENDTAB
  0
TABLE
  2
UCS
 70
     0
  0
ENDTAB
  0
TABLE
  2
APPID
 70
     1
  0
APPID
  2
ACAD
 70
     0
  0
ENDTAB
  0
TABLE
  2
DIMSTYLE
 70
     1
  0
DIMSTYLE
  2
STANDARD
 70
     0
  3

  4

  5

  6

  7

 40
1.0
 41
0.18
 42
0.0625
 43
0.38
 44
0.18
 45
0.0
 46
0.0
 47
0.0
 48
0.0
140
0.18
141
0.09
142
0.0
143
25.4
144
1.0
145
0.0
146
1.0
147
0.09
 71
     0
 72
     0
 73
     1
 74
     1
 75
     0
 76
     0
 77
     0
 78
     0
170
     0
171
     2
172
     0
173
     0
174
     0
175
     0
176
     0
177
     0
178
     0
  0
ENDTAB
  0
ENDSEC
  0
SECTION
  2
BLOCKS
  0
BLOCK
  8
0
  2
$MODEL_SPACE
 70
     0
 10
0.0
 20
0.0
 30
0.0
  3
$MODEL_SPACE
  1

  0
ENDBLK
  5
21
  8
0
  0
BLOCK
 67
     1
  8
0
  2
$PAPER_SPACE
 70
     0
 10
0.0
 20
0.0
 30
0.0
  3
$PAPER_SPACE
  1

  0
ENDBLK
  5
1D
 67
     1
  8
0
  0
ENDSEC
  0
SECTION
  2
ENTITIES
  0
POLYLINE
  5
41
  8
LAYER_1
 66
     1
 10
0.0
 20
0.0
 30
0.0
 70
     1
  0
VERTEX
  5
47
  8
LAYER_1
 10
36.95143886840354
 20
0.8366236660819093
 30
0.0
  0
VERTEX
  5
48
  8
LAYER_1
 10
37.99478133789093
 20
0.8370103983659096
 30
0.0
  0
VERTEX
  5
49
  8
LAYER_1
 10
38.06853375745529
 20
0.870494593626223
 30
0.0
  0
VERTEX
  5
4A
  8
LAYER_1
 10
38.13152914010644
 20
0.9101431593867972
 30
0.0
  0
VERTEX
  5
4B
  8
LAYER_1
 10
38.18749545691422
 20
0.9689192853439177
 30
0.0
  0
VERTEX
  5
4C
  8
LAYER_1
 10
38.23657642466405
 20
1.047221982627398
 30
0.0
  0
VERTEX
  5
4D
  8
LAYER_1
 10
38.27891576014135
 20
1.145450262367053
 30
0.0
  0
VERTEX
  5
4E
  8
LAYER_1
 10
38.3146571801315
 20
1.264003135692696
 30
0.0
  0
VERTEX
  5
4F
  8
LAYER_1
 10
38.34394440141995
 20
1.403279613734142
 30
0.0
  0
VERTEX
  5
50
  8
LAYER_1
 10
38.36692114079208
 20
1.563678707621205
 30
0.0
  0
VERTEX
  5
51
  8
LAYER_1
 10
38.3837311150333
 20
1.745599428483699
 30
0.0
  0
VERTEX
  5
52
  8
LAYER_1
 10
38.3952309087064
 20
1.906572810035077
 30
0.0
  0
VERTEX
  5
53
  8
LAYER_1
 10
38.45914345734609
 20
1.916932484326459
 30
0.0
  0
VERTEX
  5
54
  8
LAYER_1
 10
38.54076240200979
 20
1.945442557856991
 30
0.0
  0
VERTEX
  5
55
  8
LAYER_1
 10
38.63169380107865
 20
2.003730935029492
 30
0.0
  0
VERTEX
  5
56
  8
LAYER_1
 10
38.72624089785563
 20
2.087436438622303
 30
0.0
  0
VERTEX
  5
57
  8
LAYER_1
 10
38.81870693564369
 20
2.192197891413767
 30
0.0
  0
VERTEX
  5
58
  8
LAYER_1
 10
38.91268205418821
 20
2.320420514086987
 30
0.0
  0
VERTEX
  5
59
  8
LAYER_1
 10
39.00294457923955
 20
2.464227835909877
 30
0.0
  0
VERTEX
  5
5A
  8
LAYER_1
 10
39.09382429787399
 20
2.633391911465037
 30
0.0
  0
VERTEX
  5
5B
  8
LAYER_1
 10
39.18965099716782
 20
2.837684795335067
 30
0.0
  0
VERTEX
  5
5C
  8
LAYER_1
 10
39.29475446419732
 20
3.086878542102564
 30
0.0
  0
VERTEX
  5
5D
  8
LAYER_1
 10
39.41346448603877
 20
3.390745206350127
 30
0.0
  0
VERTEX
  5
5E
  8
LAYER_1
 10
39.70902334246268
 20
4.201585505615846
 30
0.0
  0
VERTEX
  5
5F
  8
LAYER_1
 10
40.30756494098693
 20
5.909673599122623
 30
0.0
  0
VERTEX
  5
60
  8
LAYER_1
 10
40.96741010530939
 20
7.785260562929536
 30
0.0
  0
VERTEX
  5
61
  8
LAYER_1
 10
41.31467083731963
 20
8.727350387698738
 30
0.0
  0
VERTEX
  5
62
  8
LAYER_1
 10
41.45921440764914
 20
9.103735489482778
 30
0.0
  0
VERTEX
  5
63
  8
LAYER_1
 10
41.69731718510614
 20
9.614401001974496
 30
0.0
  0
VERTEX
  5
64
  8
LAYER_1
 10
41.72513900485696
 20
9.702446779990309
 30
0.0
  0
VERTEX
  5
65
  8
LAYER_1
 10
41.76338935315481
 20
9.853213950166904
 30
0.0
  0
VERTEX
  5
66
  8
LAYER_1
 10
41.78265105660391
 20
10.00508698795416
 30
0.0
  0
VERTEX
  5
67
  8
LAYER_1
 10
41.78261878180002
 20
10.15973963352587
 30
0.0
  0
VERTEX
  5
68
  8
LAYER_1
 10
41.76298719533889
 20
10.31884562705581
 30
0.0
  0
VERTEX
  5
69
  8
LAYER_1
 10
41.72345096381631
 20
10.48407870871779
 30
0.0
  0
VERTEX
  5
6A
  8
LAYER_1
 10
41.66370475382804
 20
10.65711261868556
 30
0.0
  0
VERTEX
  5
6B
  8
LAYER_1
 10
41.58344323196984
 20
10.83962109713293
 30
0.0
  0
VERTEX
  5
6C
  8
LAYER_1
 10
41.48236106483747
 20
11.03327788423369
 30
0.0
  0
VERTEX
  5
6D
  8
LAYER_1
 10
41.3459792170726
 20
11.26051754150379
 30
0.0
  0
VERTEX
  5
6E
  8
LAYER_1
 10
41.15747966440241
 20
11.55729478931327
 30
0.0
  0
VERTEX
  5
6F
  8
LAYER_1
 10
40.93186598854206
 20
11.90359123038564
 30
0.0
  0
VERTEX
  5
70
  8
LAYER_1
 10
40.85144012045418
 20
12.05326905301252
 30
0.0
  0
VERTEX
  5
71
  8
LAYER_1
 10
40.7632207776911
 20
12.23189770483485
 30
0.0
  0
VERTEX
  5
72
  8
LAYER_1
 10
40.66432391344176
 20
12.45546153153479
 30
0.0
  0
VERTEX
  5
73
  8
LAYER_1
 10
40.56625539654632
 20
12.69680278179797
 30
0.0
  0
VERTEX
  5
74
  8
LAYER_1
 10
40.48052109584498
 20
12.92876370431002
 30
0.0
  0
VERTEX
  5
75
  8
LAYER_1
 10
40.37467381644957
 20
13.26005582895386
 30
0.0
  0
VERTEX
  5
76
  8
LAYER_1
 10
40.28352604519213
 20
13.60005747167023
 30
0.0
  0
VERTEX
  5
77
  8
LAYER_1
 10
40.20768674612809
 20
13.94471877429769
 30
0.0
  0
VERTEX
  5
78
  8
LAYER_1
 10
40.1477648833129
 20
14.28998987867479
 30
0.0
  0
VERTEX
  5
79
  8
LAYER_1
 10
40.10436942080199
 20
14.63182092664006
 30
0.0
  0
VERTEX
  5
7A
  8
LAYER_1
 10
40.07810932265082
 20
14.96616206003205
 30
0.0
  0
VERTEX
  5
7B
  8
LAYER_1
 10
40.06959355291481
 20
15.28896342068931
 30
0.0
  0
VERTEX
  5
7C
  8
LAYER_1
 10
40.0794310756494
 20
15.59617515045038
 30
0.0
  0
VERTEX
  5
7D
  8
LAYER_1
 10
40.09907552105391
 20
15.90086955230356
 30
0.0
  0
VERTEX
  5
7E
  8
LAYER_1
 10
40.12632872073014
 20
16.08576568613677
 30
0.0
  0
VERTEX
  5
7F
  8
LAYER_1
 10
40.16316829741976
 20
16.28876623307448
 30
0.0
  0
VERTEX
  5
80
  8
LAYER_1
 10
40.21346959502184
 20
16.51718999841426
 30
0.0
  0
VERTEX
  5
81
  8
LAYER_1
 10
40.27335726963732
 20
16.76371817685853
 30
0.0
  0
VERTEX
  5
82
  8
LAYER_1
 10
41.33835638573305
 20
19.97548832124974
 30
0.0
  0
VERTEX
  5
83
  8
LAYER_1
 10
41.72205405846589
 20
20.22418099206008
 30
0.0
  0
VERTEX
  5
84
  8
LAYER_1
 10
41.76314063696773
 20
20.19944622958873
 30
0.0
  0
VERTEX
  5
85
  8
LAYER_1
 10
43.85863015374409
 20
18.62660134948403
 30
0.0
  0
VERTEX
  5
86
  8
LAYER_1
 10
45.1264893571718
 20
17.66421267620207
 30
0.0
  0
VERTEX
  5
87
  8
LAYER_1
 10
46.42033211016865
 20
16.6672432490188
 30
0.0
  0
VERTEX
  5
88
  8
LAYER_1
 10
47.25719718515448
 20
16.00679971631742
 30
0.0
  0
VERTEX
  5
89
  8
LAYER_1
 10
47.46850705239243
 20
15.83250455261185
 30
0.0
  0
VERTEX
  5
8A
  8
LAYER_1
 10
47.7033430661508
 20
15.62349110247068
 30
0.0
  0
VERTEX
  5
8B
  8
LAYER_1
 10
47.97121579629955
 20
15.3657243139306
 30
0.0
  0
VERTEX
  5
8C
  8
LAYER_1
 10
48.26261467296872
 20
15.07323923895492
 30
0.0
  0
VERTEX
  5
8D
  8
LAYER_1
 10
48.39537167456596
 20
14.91475683852646
 30
0.0
  0
VERTEX
  5
8E
  8
LAYER_1
 10
48.55214530252509
 20
14.72165213465794
 30
0.0
  0
VERTEX
  5
8F
  8
LAYER_1
 10
48.70534907001445
 20
14.52089583788293
 30
0.0
  0
VERTEX
  5
90
  8
LAYER_1
 10
49.00141514021892
 20
14.09593110297939
 30
0.0
  0
VERTEX
  5
91
  8
LAYER_1
 10
49.18056373252687
 20
13.82298919113037
 30
0.0
  0
VERTEX
  5
92
  8
LAYER_1
 10
49.4635707569057
 20
13.32877265907133
 30
0.0
  0
VERTEX
  5
93
  8
LAYER_1
 10
50.04153710797388
 20
12.20294687563941
 30
0.0
  0
VERTEX
  5
94
  8
LAYER_1
 10
50.13535864145305
 20
12.05326905301252
 30
0.0
  0
VERTEX
  5
95
  8
LAYER_1
 10
50.46190470910928
 20
11.55859052295195
 30
0.0
  0
VERTEX
  5
96
  8
LAYER_1
 10
50.6946292432863
 20
11.21358981551825
 30
0.0
  0
VERTEX
  5
97
  8
LAYER_1
 10
51.13094740776246
 20
10.61812287135477
 30
0.0
  0
VERTEX
  5
98
  8
LAYER_1
 10
51.54337013386105
 20
10.08984820325989
 30
0.0
  0
VERTEX
  5
99
  8
LAYER_1
 10
51.63957957453611
 20
9.90495206942668
 30
0.0
  0
VERTEX
  5
9A
  8
LAYER_1
 10
51.7558951623506
 20
9.663624702653703
 30
0.0
  0
VERTEX
  5
9B
  8
LAYER_1
 10
51.86508963153241
 20
9.39579406854031
 30
0.0
  0
VERTEX
  5
9C
  8
LAYER_1
 10
51.97651197023637
 20
9.076583356265154
 30
0.0
  0
VERTEX
  5
9D
  8
LAYER_1
 10
52.0995111666173
 20
8.681115755006875
 30
0.0
  0
VERTEX
  5
9E
  8
LAYER_1
 10
52.39925331190557
 20
7.615761841015533
 30
0.0
  0
VERTEX
  5
9F
  8
LAYER_1
 10
52.60438125449294
 20
6.867372727881121
 30
0.0
  0
VERTEX
  5
A0
  8
LAYER_1
 10
52.66671553988721
 20
6.673672016246331
 30
0.0
  0
VERTEX
  5
A1
  8
LAYER_1
 10
52.76947701792622
 20
6.383630672582621
 30
0.0
  0
VERTEX
  5
A2
  8
LAYER_1
 10
52.89334673800924
 20
6.086054427542759
 30
0.0
  0
VERTEX
  5
A3
  8
LAYER_1
 10
53.03743786764286
 20
5.782931331600918
 30
0.0
  0
VERTEX
  5
A4
  8
LAYER_1
 10
53.20086357433372
 20
5.47624943523127
 30
0.0
  0
VERTEX
  5
A5
  8
LAYER_1
 10
53.59247290889463
 20
4.807101522311089
 30
0.0
  0
VERTEX
  5
A6
  8
LAYER_1
 10
53.87533914033233
 20
4.331654321025697
 30
0.0
  0
VERTEX
  5
A7
  8
LAYER_1
 10
54.14748905862402
 20
3.768161341724492
 30
0.0
  0
VERTEX
  5
A8
  8
LAYER_1
 10
54.24725460432661
 20
3.629130545812764
 30
0.0
  0
VERTEX
  5
A9
  8
LAYER_1
 10
54.4292482814522
 20
3.395770098136754
 30
0.0
  0
VERTEX
  5
AA
  8
LAYER_1
 10
54.66074067841417
 20
3.131948606295514
 30
0.0
  0
VERTEX
  5
AB
  8
LAYER_1
 10
54.9318630529224
 20
2.848413313222747
 30
0.0
  0
VERTEX
  5
AC
  8
LAYER_1
 10
55.23274666268678
 20
2.55591146185216
 30
0.0
  0
VERTEX
  5
AD
  8
LAYER_1
 10
55.69198271906939
 20
2.133670205047745
 30
0.0
  0
VERTEX
  5
AE
  8
LAYER_1
 10
55.88568343070418
 20
1.960757308924037
 30
0.0
  0
VERTEX
  5
AF
  8
LAYER_1
 10
55.97042754475566
 20
1.970095377329252
 30
0.0
  0
VERTEX
  5
B0
  8
LAYER_1
 10
56.04624284121714
 20
1.98603349258008
 30
0.0
  0
VERTEX
  5
B1
  8
LAYER_1
 10
56.13085907985952
 20
2.017141843954818
 30
0.0
  0
VERTEX
  5
B2
  8
LAYER_1
 10
56.22157549677462
 20
2.061671727301763
 30
0.0
  0
VERTEX
  5
B3
  8
LAYER_1
 10
56.31569132805423
 20
2.117874438469217
 30
0.0
  0
VERTEX
  5
B4
  8
LAYER_1
 10
56.41050580979017
 20
2.184001273305475
 30
0.0
  0
VERTEX
  5
B5
  8
LAYER_1
 10
56.50331817807423
 20
2.258303527658839
 30
0.0
  0
VERTEX
  5
B6
  8
LAYER_1
 10
56.59142766899824
 20
2.339032497377606
 30
0.0
  0
VERTEX
  5
B7
  8
LAYER_1
 10
56.67213351865399
 20
2.424439478310075
 30
0.0
  0
VERTEX
  5
B8
  8
LAYER_1
 10
56.84715007696349
 20
2.640311562773184
 30
0.0
  0
VERTEX
  5
B9
  8
LAYER_1
 10
56.98583999910199
 20
2.84665742662979
 30
0.0
  0
VERTEX
  5
BA
  8
LAYER_1
 10
57.08889760182713
 20
3.046124344471126
 30
0.0
  0
VERTEX
  5
BB
  8
LAYER_1
 10
57.12728125739645
 20
3.144105471945829
 30
0.0
  0
VERTEX
  5
BC
  8
LAYER_1
 10
57.15701720189655
 20
3.241359590888427
 30
0.0
  0
VERTEX
  5
BD
  8
LAYER_1
 10
57.17819222492214
 20
3.338217610622825
 30
0.0
  0
VERTEX
  5
BE
  8
LAYER_1
 10
57.19089311606791
 20
3.435010440472928
 30
0.0
  0
VERTEX
  5
BF
  8
LAYER_1
 10
57.19520666492858
 20
3.53206898976264
 30
0.0
  0
VERTEX
  5
C0
  8
LAYER_1
 10
57.19121966109885
 20
3.629724167815863
 30
0.0
  0
VERTEX
  5
C1
  8
LAYER_1
 10
57.17901889417342
 20
3.728306883956504
 30
0.0
  0
VERTEX
  5
C2
  8
LAYER_1
 10
57.15869115374701
 20
3.828148047508467
 30
0.0
  0
VERTEX
  5
C3
  8
LAYER_1
 10
57.09400191077004
 20
4.032929354141974
 30
0.0
  0
VERTEX
  5
C4
  8
LAYER_1
 10
57.02793905442118
 20
4.182584293136912
 30
0.0
  0
VERTEX
  5
C5
  8
LAYER_1
 10
56.93812682219281
 20
4.348191782372024
 30
0.0
  0
VERTEX
  5
C6
  8
LAYER_1
 10
56.82062391402435
 20
4.536479783514732
 30
0.0
  0
VERTEX
  5
C7
  8
LAYER_1
 10
56.67148902985519
 20
4.754176258232464
 30
0.0
  0
VERTEX
  5
C8
  8
LAYER_1
 10
56.48439472121171
 20
5.018215795010766
 30
0.0
  0
VERTEX
  5
C9
  8
LAYER_1
 10
56.38754436539433
 20
5.116344467220336
 30
0.0
  0
VERTEX
  5
CA
  8
LAYER_1
 10
56.32426186418498
 20
5.174722467491294
 30
0.0
  0
VERTEX
  5
CB
  8
LAYER_1
 10
56.2584756955995
 20
5.223338735439992
 30
0.0
  0
VERTEX
  5
CC
  8
LAYER_1
 10
56.18837175616442
 20
5.262802928277909
 30
0.0
  0
VERTEX
  5
CD
  8
LAYER_1
 10
56.11213594240623
 20
5.293724703216524
 30
0.0
  0
VERTEX
  5
CE
  8
LAYER_1
 10
56.02795415085144
 20
5.316713717467318
 30
0.0
  0
VERTEX
  5
CF
  8
LAYER_1
 10
55.93401227802656
 20
5.332379628241767
 30
0.0
  0
VERTEX
  5
D0
  8
LAYER_1
 10
55.70959187467255
 20
5.344180768207552
 30
0.0
  0
VERTEX
  5
D1
  8
LAYER_1
 10
55.50882006935637
 20
5.344180768207553
 30
0.0
  0
VERTEX
  5
D2
  8
LAYER_1
 10
55.41785619861609
 20
5.363689026376423
 30
0.0
  0
VERTEX
  5
D3
  8
LAYER_1
 10
55.3292217451813
 20
5.395149710659405
 30
0.0
  0
VERTEX
  5
D4
  8
LAYER_1
 10
55.25231194512482
 20
5.452936046576387
 30
0.0
  0
VERTEX
  5
D5
  8
LAYER_1
 10
55.17959739151886
 20
5.544567022270953
 30
0.0
  0
VERTEX
  5
D6
  8
LAYER_1
 10
55.10354867743564
 20
5.677561625886692
 30
0.0
  0
VERTEX
  5
D7
  8
LAYER_1
 10
55.01480916679369
 20
5.850319213461305
 30
0.0
  0
VERTEX
  5
D8
  8
LAYER_1
 10
54.6069045787931
 20
6.849763572277957
 30
0.0
  0
VERTEX
  5
D9
  8
LAYER_1
 10
54.32005322350505
 20
7.501302329594975
 30
0.0
  0
VERTEX
  5
DA
  8
LAYER_1
 10
53.55974675823308
 20
9.015689711466965
 30
0.0
  0
VERTEX
  5
DB
  8
LAYER_1
 10
53.20182275645352
 20
9.825710869212447
 30
0.0
  0
VERTEX
  5
DC
  8
LAYER_1
 10
53.06702246962282
 20
10.15148024787096
 30
0.0
  0
VERTEX
  5
DD
  8
LAYER_1
 10
52.80042021374699
 20
10.82161071860366
 30
0.0
  0
VERTEX
  5
DE
  8
LAYER_1
 10
52.55888733298993
 20
11.47766128051707
 30
0.0
  0
VERTEX
  5
DF
  8
LAYER_1
 10
52.44257464056679
 20
11.80892502158448
 30
0.0
  0
VERTEX
  5
E0
  8
LAYER_1
 10
52.2829510588071
 20
12.34382012046471
 30
0.0
  0
VERTEX
  5
E1
  8
LAYER_1
 10
52.23205538710387
 20
12.54632540990108
 30
0.0
  0
VERTEX
  5
E2
  8
LAYER_1
 10
52.17311126912087
 20
12.79651736540374
 30
0.0
  0
VERTEX
  5
E3
  8
LAYER_1
 10
52.13185643922941
 20
13.01549606747216
 30
0.0
  0
VERTEX
  5
E4
  8
LAYER_1
 10
52.10316728438544
 20
13.23541189694734
 30
0.0
  0
VERTEX
  5
E5
  8
LAYER_1
 10
52.08192019154491
 20
13.48841523467028
 30
0.0
  0
VERTEX
  5
E6
  8
LAYER_1
 10
52.05654211033281
 20
13.8582075023367
 30
0.0
  0
VERTEX
  5
E7
  8
LAYER_1
 10
52.02829819347495
 20
13.96386243595567
 30
0.0
  0
VERTEX
  5
E8
  8
LAYER_1
 10
51.99521062654406
 20
14.0705351344323
 30
0.0
  0
VERTEX
  5
E9
  8
LAYER_1
 10
51.95499753099774
 20
14.16580771901433
 30
0.0
  0
VERTEX
  5
EA
  8
LAYER_1
 10
51.90542777224761
 20
14.252247584201
 30
0.0
  0
VERTEX
  5
EB
  8
LAYER_1
 10
51.84427021570527
 20
14.33242212449155
 30
0.0
  0
VERTEX
  5
EC
  8
LAYER_1
 10
51.76929372678232
 20
14.40889873438523
 30
0.0
  0
VERTEX
  5
ED
  8
LAYER_1
 10
51.67826717089039
 20
14.48424480838128
 30
0.0
  0
VERTEX
  5
EE
  8
LAYER_1
 10
51.56895941344108
 20
14.56102774097893
 30
0.0
  0
VERTEX
  5
EF
  8
LAYER_1
 10
51.43913931984601
 20
14.64181492667744
 30
0.0
  0
VERTEX
  5
F0
  8
LAYER_1
 10
51.18715056801216
 20
14.79149274930432
 30
0.0
  0
VERTEX
  5
F1
  8
LAYER_1
 10
51.09229049650672
 20
14.8776856700997
 30
0.0
  0
VERTEX
  5
F2
  8
LAYER_1
 10
51.02225821854128
 20
14.95203932347169
 30
0.0
  0
VERTEX
  5
F3
  8
LAYER_1
 10
50.94080323486848
 20
15.05793931164514
 30
0.0
  0
VERTEX
  5
F4
  8
LAYER_1
 10
50.74574873499456
 20
15.36081171094358
 30
0.0
  0
VERTEX
  5
F5
  8
LAYER_1
 10
50.51137416607259
 20
15.77916970508924
 30
0.0
  0
VERTEX
  5
F6
  8
LAYER_1
 10
50.24192669729017
 20
16.30588013117631
 30
0.0
  0
VERTEX
  5
F7
  8
LAYER_1
 10
49.90233061024095
 20
17.01905093310439
 30
0.0
  0
VERTEX
  5
F8
  8
LAYER_1
 10
49.62707829798015
 20
17.66788554423441
 30
0.0
  0
VERTEX
  5
F9
  8
LAYER_1
 10
49.48280514289788
 20
18.02616908791224
 30
0.0
  0
VERTEX
  5
FA
  8
LAYER_1
 10
49.27579841947774
 20
18.64789782639694
 30
0.0
  0
VERTEX
  5
FB
  8
LAYER_1
 10
49.22998915665349
 20
18.82958662037127
 30
0.0
  0
VERTEX
  5
FC
  8
LAYER_1
 10
49.15841720586633
 20
19.18176973243452
 30
0.0
  0
VERTEX
  5
FD
  8
LAYER_1
 10
49.13265451790338
 20
19.35226405052344
 30
0.0
  0
VERTEX
  5
FE
  8
LAYER_1
 10
49.0966955613448
 20
20.35598591990372
 30
0.0
  0
VERTEX
  5
FF
  8
LAYER_1
 10
49.0784151082233
 20
20.55849120934009
 30
0.0
  0
VERTEX
  5
100
  8
LAYER_1
 10
49.03392989833658
 20
20.94572047520065
 30
0.0
  0
VERTEX
  5
101
  8
LAYER_1
 10
48.96796124128843
 20
21.35869935549305
 30
0.0
  0
VERTEX
  5
102
  8
LAYER_1
 10
48.88027452125066
 20
21.79836365486242
 30
0.0
  0
VERTEX
  5
103
  8
LAYER_1
 10
48.77063512239504
 20
22.26564917795392
 30
0.0
  0
VERTEX
  5
104
  8
LAYER_1
 10
48.63880842889341
 20
22.76149172941268
 30
0.0
  0
VERTEX
  5
105
  8
LAYER_1
 10
48.48455982491755
 20
23.28682711388385
 30
0.0
  0
VERTEX
  5
106
  8
LAYER_1
 10
48.30765469463928
 20
23.84259113601257
 30
0.0
  0
VERTEX
  5
107
  8
LAYER_1
 10
48.10785842223038
 20
24.42971960044399
 30
0.0
  0
VERTEX
  5
108
  8
LAYER_1
 10
47.90937261325984
 20
24.99599842133708
 30
0.0
  0
VERTEX
  5
109
  8
LAYER_1
 10
47.65508010579761
 20
25.67769197506856
 30
0.0
  0
VERTEX
  5
10A
  8
LAYER_1
 10
47.18869484013376
 20
26.87511455608362
 30
0.0
  0
VERTEX
  5
10B
  8
LAYER_1
 10
46.9364231831394
 20
27.50530309478776
 30
0.0
  0
VERTEX
  5
10C
  8
LAYER_1
 10
46.94177006010661
 20
27.5116802304448
 30
0.0
  0
VERTEX
  5
10D
  8
LAYER_1
 10
46.98627273541737
 20
27.51088376708457
 30
0.0
  0
VERTEX
  5
10E
  8
LAYER_1
 10
47.08271552425833
 20
27.4944642350659
 30
0.0
  0
VERTEX
  5
10F
  8
LAYER_1
 10
47.30122007416238
 20
27.44052873407842
 30
0.0
  0
VERTEX
  5
110
  8
LAYER_1
 10
47.50331891023987
 20
27.3596995464953
 30
0.0
  0
VERTEX
  5
111
  8
LAYER_1
 10
47.59802193042322
 20
27.30976306698373
 30
0.0
  0
VERTEX
  5
112
  8
LAYER_1
 10
47.68844484903902
 20
27.25353706880924
 30
0.0
  0
VERTEX
  5
113
  8
LAYER_1
 10
47.77455078883931
 20
27.19106535583463
 30
0.0
  0
VERTEX
  5
114
  8
LAYER_1
 10
47.85630287257614
 20
27.12239173192272
 30
0.0
  0
VERTEX
  5
115
  8
LAYER_1
 10
48.00659796286754
 20
26.96661396673818
 30
0.0
  0
VERTEX
  5
116
  8
LAYER_1
 10
48.13903510192956
 20
26.78655420415809
 30
0.0
  0
VERTEX
  5
117
  8
LAYER_1
 10
48.25331927177849
 20
26.58256287508491
 30
0.0
  0
VERTEX
  5
118
  8
LAYER_1
 10
48.34915545443066
 20
26.3549904104211
 30
0.0
  0
VERTEX
  5
119
  8
LAYER_1
 10
48.42624863190237
 20
26.10418724106911
 30
0.0
  0
VERTEX
  5
11A
  8
LAYER_1
 10
48.4751475821852
 20
25.88762509097467
 30
0.0
  0
VERTEX
  5
11B
  8
LAYER_1
 10
48.50978144448865
 20
25.6688567986409
 30
0.0
  0
VERTEX
  5
11C
  8
LAYER_1
 10
48.5315200614051
 20
25.43693055604653
 30
0.0
  0
VERTEX
  5
11D
  8
LAYER_1
 10
48.54173327552692
 20
25.18089455517028
 30
0.0
  0
VERTEX
  5
11E
  8
LAYER_1
 10
48.54745704832821
 20
24.86392975431336
 30
0.0
  0
VERTEX
  5
11F
  8
LAYER_1
 10
48.60070852849016
 20
24.73186108728964
 30
0.0
  0
VERTEX
  5
120
  8
LAYER_1
 10
48.73808036175125
 20
24.42129622722285
 30
0.0
  0
VERTEX
  5
121
  8
LAYER_1
 10
48.89636382256234
 20
24.11879309485676
 30
0.0
  0
VERTEX
  5
122
  8
LAYER_1
 10
49.07524987248493
 20
23.82461439830319
 30
0.0
  0
VERTEX
  5
123
  8
LAYER_1
 10
49.27442947308057
 20
23.53902284567397
 30
0.0
  0
VERTEX
  5
124
  8
LAYER_1
 10
49.49359358591079
 20
23.26228114508092
 30
0.0
  0
VERTEX
  5
125
  8
LAYER_1
 10
49.73243317253709
 20
22.99465200463585
 30
0.0
  0
VERTEX
  5
126
  8
LAYER_1
 10
49.99063919452099
 20
22.73639813245061
 30
0.0
  0
VERTEX
  5
127
  8
LAYER_1
 10
50.26790261342406
 20
22.487782236637
 30
0.0
  0
VERTEX
  5
128
  8
LAYER_1
 10
50.56391439080777
 20
22.24906702530686
 30
0.0
  0
VERTEX
  5
129
  8
LAYER_1
 10
50.87836548823369
 20
22.02051520657201
 30
0.0
  0
VERTEX
  5
12A
  8
LAYER_1
 10
51.21094686726332
 20
21.80238948854427
 30
0.0
  0
VERTEX
  5
12B
  8
LAYER_1
 10
51.56134948945819
 20
21.59495257933546
 30
0.0
  0
VERTEX
  5
12C
  8
LAYER_1
 10
51.92926431637983
 20
21.39846718705742
 30
0.0
  0
VERTEX
  5
12D
  8
LAYER_1
 10
52.31438230958976
 20
21.21319601982195
 30
0.0
  0
VERTEX
  5
12E
  8
LAYER_1
 10
52.71639443064951
 20
21.0394017857409
 30
0.0
  0
VERTEX
  5
12F
  8
LAYER_1
 10
53.1349916411206
 20
20.87734719292607
 30
0.0
  0
VERTEX
  5
130
  8
LAYER_1
 10
53.6581252469041
 20
20.69912920202164
 30
0.0
  0
VERTEX
  5
131
  8
LAYER_1
 10
54.19520449280056
 20
20.54937270293278
 30
0.0
  0
VERTEX
  5
132
  8
LAYER_1
 10
54.49456013805433
 20
20.47344551760713
 30
0.0
  0
VERTEX
  5
133
  8
LAYER_1
 10
54.50580652435444
 20
20.26503789612854
 30
0.0
  0
VERTEX
  5
134
  8
LAYER_1
 10
54.53573862221977
 20
19.9687630844187
 30
0.0
  0
VERTEX
  5
135
  8
LAYER_1
 10
54.59318370665588
 20
19.66449695293461
 30
0.0
  0
VERTEX
  5
136
  8
LAYER_1
 10
54.6767374388032
 20
19.35584686830282
 30
0.0
  0
VERTEX
  5
137
  8
LAYER_1
 10
54.78499547980219
 20
19.04642019714988
 30
0.0
  0
VERTEX
  5
138
  8
LAYER_1
 10
54.91655349079328
 20
18.73982430610236
 30
0.0
  0
VERTEX
  5
139
  8
LAYER_1
 10
55.07000713291693
 20
18.43966656178679
 30
0.0
  0
VERTEX
  5
13A
  8
LAYER_1
 10
55.24395206731356
 20
18.14955433082975
 30
0.0
  0
VERTEX
  5
13B
  8
LAYER_1
 10
55.43698395512364
 20
17.87309497985778
 30
0.0
  0
VERTEX
  5
13C
  8
LAYER_1
 10
55.67697340320631
 20
17.57875617471648
 30
0.0
  0
VERTEX
  5
13D
  8
LAYER_1
 10
55.93704775830734
 20
17.30635665228615
 30
0.0
  0
VERTEX
  5
13E
  8
LAYER_1
 10
56.21674006030468
 20
17.05622381240131
 30
0.0
  0
VERTEX
  5
13F
  8
LAYER_1
 10
56.5155833490763
 20
16.82868505489646
 30
0.0
  0
VERTEX
  5
140
  8
LAYER_1
 10
56.83311066450016
 20
16.62406777960614
 30
0.0
  0
VERTEX
  5
141
  8
LAYER_1
 10
57.1688550464542
 20
16.44269938636485
 30
0.0
  0
VERTEX
  5
142
  8
LAYER_1
 10
57.52234953481641
 20
16.28490727500711
 30
0.0
  0
VERTEX
  5
143
  8
LAYER_1
 10
57.89312716946473
 20
16.15101884536744
 30
0.0
  0
VERTEX
  5
144
  8
LAYER_1
 10
58.19649419167555
 20
16.06487670137151
 30
0.0
  0
VERTEX
  5
145
  8
LAYER_1
 10
58.48711360712789
 20
16.00528460600138
 30
0.0
  0
VERTEX
  5
146
  8
LAYER_1
 10
58.76431087467017
 20
15.97222487646187
 30
0.0
  0
VERTEX
  5
147
  8
LAYER_1
 10
59.02741145315085
 20
15.9656798299578
 30
0.0
  0
VERTEX
  5
148
  8
LAYER_1
 10
59.27574080141837
 20
15.98563178369399
 30
0.0
  0
VERTEX
  5
149
  8
LAYER_1
 10
59.50862437832114
 20
16.03206305487527
 30
0.0
  0
VERTEX
  5
14A
  8
LAYER_1
 10
59.6190632084009
 20
16.06520290863432
 30
0.0
  0
VERTEX
  5
14B
  8
LAYER_1
 10
59.72538764270764
 20
16.10495596070644
 30
0.0
  0
VERTEX
  5
14C
  8
LAYER_1
 10
59.82751336359741
 20
16.15132000074225
 30
0.0
  0
VERTEX
  5
14D
  8
LAYER_1
 10
59.92535605342628
 20
16.20429281839234
 30
0.0
  0
VERTEX
  5
14E
  8
LAYER_1
 10
60.00808985028081
 20
16.25925172858392
 30
0.0
  0
VERTEX
  5
14F
  8
LAYER_1
 10
60.09404342771307
 20
16.32758987698014
 30
0.0
  0
VERTEX
  5
150
  8
LAYER_1
 10
60.26224401142392
 20
16.48993131143433
 30
0.0
  0
VERTEX
  5
151
  8
LAYER_1
 10
60.40322597878506
 20
16.66237196785057
 30
0.0
  0
VERTEX
  5
152
  8
LAYER_1
 10
60.45515628578018
 20
16.74333414369934
 30
0.0
  0
VERTEX
  5
153
  8
LAYER_1
 10
60.49025750402273
 20
16.81596669232449
 30
0.0
  0
VERTEX
  5
154
  8
LAYER_1
 10
60.50922347981454
 20
16.86585098899982
 30
0.0
  0
VERTEX
  5
155
  8
LAYER_1
 10
60.6893756420605
 20
16.85482827786397
 30
0.0
  0
VERTEX
  5
156
  8
LAYER_1
 10
60.85453835647699
 20
16.83981179719879
 30
0.0
  0
VERTEX
  5
157
  8
LAYER_1
 10
61.01169210253184
 20
16.81532884813419
 30
0.0
  0
VERTEX
  5
158
  8
LAYER_1
 10
61.16153370226058
 20
16.78113476470625
 30
0.0
  0
VERTEX
  5
159
  8
LAYER_1
 10
61.30475997769879
 20
16.73698488095104
 30
0.0
  0
VERTEX
  5
15A
  8
LAYER_1
 10
61.44206775088199
 20
16.68263453090464
 30
0.0
  0
VERTEX
  5
15B
  8
LAYER_1
 10
61.57415384384574
 20
16.61783904860312
 30
0.0
  0
VERTEX
  5
15C
  8
LAYER_1
 10
61.7017150786256
 20
16.54235376808256
 30
0.0
  0
VERTEX
  5
15D
  8
LAYER_1
 10
61.82544827725709
 20
16.45593402337903
 30
0.0
  0
VERTEX
  5
15E
  8
LAYER_1
 10
61.94329962873196
 20
16.35931703956314
 30
0.0
  0
VERTEX
  5
15F
  8
LAYER_1
 10
62.05591367286966
 20
16.25119325367076
 30
0.0
  0
VERTEX
  5
160
  8
LAYER_1
 10
62.16312520024167
 20
16.13194728048306
 30
0.0
  0
VERTEX
  5
161
  8
LAYER_1
 10
62.26476900141948
 20
16.00196373478121
 30
0.0
  0
VERTEX
  5
162
  8
LAYER_1
 10
62.3606798669746
 20
15.86162723134638
 30
0.0
  0
VERTEX
  5
163
  8
LAYER_1
 10
62.45069258747851
 20
15.71132238495974
 30
0.0
  0
VERTEX
  5
164
  8
LAYER_1
 10
62.53464195350271
 20
15.55143381040246
 30
0.0
  0
VERTEX
  5
165
  8
LAYER_1
 10
62.61236275561869
 20
15.38234612245572
 30
0.0
  0
VERTEX
  5
166
  8
LAYER_1
 10
62.68368978439795
 20
15.20444393590068
 30
0.0
  0
VERTEX
  5
167
  8
LAYER_1
 10
62.74845783041198
 20
15.01811186551852
 30
0.0
  0
VERTEX
  5
168
  8
LAYER_1
 10
62.80650168423227
 20
14.8237345260904
 30
0.0
  0
VERTEX
  5
169
  8
LAYER_1
 10
62.85765613643032
 20
14.62169653239751
 30
0.0
  0
VERTEX
  5
16A
  8
LAYER_1
 10
62.90175597757762
 20
14.412382499221
 30
0.0
  0
VERTEX
  5
16B
  8
LAYER_1
 10
62.93863599824567
 20
14.19617704134206
 30
0.0
  0
VERTEX
  5
16C
  8
LAYER_1
 10
62.96813098900596
 20
13.97346477354185
 30
0.0
  0
VERTEX
  5
16D
  8
LAYER_1
 10
62.99007574042998
 20
13.74463031060154
 30
0.0
  0
VERTEX
  5
16E
  8
LAYER_1
 10
63.00858687218348
 20
13.48086011527521
 30
0.0
  0
VERTEX
  5
16F
  8
LAYER_1
 10
63.00858687218348
 20
13.45393120090617
 30
0.0
  0
VERTEX
  5
170
  8
LAYER_1
 10
63.16807395904821
 20
13.61204646261352
 30
0.0
  0
VERTEX
  5
171
  8
LAYER_1
 10
63.30158749147247
 20
13.75257485326217
 30
0.0
  0
VERTEX
  5
172
  8
LAYER_1
 10
63.42160141314346
 20
13.89627330283947
 30
0.0
  0
VERTEX
  5
173
  8
LAYER_1
 10
63.5285601107775
 20
14.04392288819611
 30
0.0
  0
VERTEX
  5
174
  8
LAYER_1
 10
63.62290797109093
 20
14.19630468618277
 30
0.0
  0
VERTEX
  5
175
  8
LAYER_1
 10
63.70508938080009
 20
14.35419977365013
 30
0.0
  0
VERTEX
  5
176
  8
LAYER_1
 10
63.77554872662131
 20
14.51838922744885
 30
0.0
  0
VERTEX
  5
177
  8
LAYER_1
 10
63.83473039527092
 20
14.68965412442962
 30
0.0
  0
VERTEX
  5
178
  8
LAYER_1
 10
63.88307877346528
 20
14.86877554144311
 30
0.0
  0
VERTEX
  5
179
  8
LAYER_1
 10
63.91998898972123
 20
15.08115214190993
 30
0.0
  0
VERTEX
  5
17A
  8
LAYER_1
 10
63.93676964528141
 20
15.36689358600141
 30
0.0
  0
VERTEX
  5
17B
  8
LAYER_1
 10
63.94654765759389
 20
15.67815708865106
 30
0.0
  0
VERTEX
  5
17C
  8
LAYER_1
 10
63.92543808841689
 20
15.85114536508838
 30
0.0
  0
VERTEX
  5
17D
  8
LAYER_1
 10
63.88940565294992
 20
16.08320622577553
 30
0.0
  0
VERTEX
  5
17E
  8
LAYER_1
 10
63.83751806170902
 20
16.32132948325303
 30
0.0
  0
VERTEX
  5
17F
  8
LAYER_1
 10
63.77048474119143
 20
16.56355193547666
 30
0.0
  0
VERTEX
  5
180
  8
LAYER_1
 10
63.68901511789438
 20
16.80791038040219
 30
0.0
  0
VERTEX
  5
181
  8
LAYER_1
 10
63.5938186183151
 20
17.0524416159854
 30
0.0
  0
VERTEX
  5
182
  8
LAYER_1
 10
63.48560466895083
 20
17.29518244018206
 30
0.0
  0
VERTEX
  5
183
  8
LAYER_1
 10
63.3650826962988
 20
17.53416965094793
 30
0.0
  0
VERTEX
  5
184
  8
LAYER_1
 10
63.23296212685624
 20
17.76744004623881
 30
0.0
  0
VERTEX
  5
185
  8
LAYER_1
 10
63.08358949391435
 20
18.0022509042851
 30
0.0
  0
VERTEX
  5
186
  8
LAYER_1
 10
63.05709772305988
 20
18.04752865778782
 30
0.0
  0
VERTEX
  5
187
  8
LAYER_1
 10
63.05497976527401
 20
18.07393104529504
 30
0.0
  0
VERTEX
  5
188
  8
LAYER_1
 10
63.1846784282151
 20
18.17612036279201
 30
0.0
  0
VERTEX
  5
189
  8
LAYER_1
 10
63.30984727584173
 20
18.28512921436543
 30
0.0
  0
VERTEX
  5
18A
  8
LAYER_1
 10
63.45005476580031
 20
18.42191476003959
 30
0.0
  0
VERTEX
  5
18B
  8
LAYER_1
 10
63.54266605444417
 20
18.52338529771582
 30
0.0
  0
VERTEX
  5
18C
  8
LAYER_1
 10
63.62716529224912
 20
18.62720148411864
 30
0.0
  0
VERTEX
  5
18D
  8
LAYER_1
 10
63.70353923433717
 20
18.73331368347259
 30
0.0
  0
VERTEX
  5
18E
  8
LAYER_1
 10
63.77177463583034
 20
18.84167226000221
 30
0.0
  0
VERTEX
  5
18F
  8
LAYER_1
 10
63.83185825185066
 20
18.95222757793204
 30
0.0
  0
VERTEX
  5
190
  8
LAYER_1
 10
63.88377683752014
 20
19.06493000148661
 30
0.0
  0
VERTEX
  5
191
  8
LAYER_1
 10
63.92751714796083
 20
19.17972989489047
 30
0.0
  0
VERTEX
  5
192
  8
LAYER_1
 10
63.96306593829473
 20
19.29657762236816
 30
0.0
  0
VERTEX
  5
193
  8
LAYER_1
 10
63.99040996364386
 20
19.4154235481442
 30
0.0
  0
VERTEX
  5
194
  8
LAYER_1
 10
64.00953597913026
 20
19.53621803644315
 30
0.0
  0
VERTEX
  5
195
  8
LAYER_1
 10
64.02043073987593
 20
19.65891145148954
 30
0.0
  0
VERTEX
  5
196
  8
LAYER_1
 10
64.02308100100292
 20
19.78345415750791
 30
0.0
  0
VERTEX
  5
197
  8
LAYER_1
 10
64.01747351763322
 20
19.90979651872279
 30
0.0
  0
VERTEX
  5
198
  8
LAYER_1
 10
64.0035950448889
 20
20.03788889935873
 30
0.0
  0
VERTEX
  5
199
  8
LAYER_1
 10
63.98143233789192
 20
20.16768166364026
 30
0.0
  0
VERTEX
  5
19A
  8
LAYER_1
 10
63.95097215176435
 20
20.29912517579193
 30
0.0
  0
VERTEX
  5
19B
  8
LAYER_1
 10
63.91043829538081
 20
20.43903620964058
 30
0.0
  0
VERTEX
  5
19C
  8
LAYER_1
 10
63.86305525608697
 20
20.57053737693713
 30
0.0
  0
VERTEX
  5
19D
  8
LAYER_1
 10
63.80351570210097
 20
20.70692595879007
 30
0.0
  0
VERTEX
  5
19E
  8
LAYER_1
 10
63.72651230164097
 20
20.86149923630787
 30
0.0
  0
VERTEX
  5
19F
  8
LAYER_1
 10
63.63752880791449
 20
21.03243859625193
 30
0.0
  0
VERTEX
  5
1A0
  8
LAYER_1
 10
63.54566611807993
 20
21.14148876886727
 30
0.0
  0
VERTEX
  5
1A1
  8
LAYER_1
 10
63.44621664584502
 20
21.00407010063136
 30
0.0
  0
VERTEX
  5
1A2
  8
LAYER_1
 10
63.31376057066485
 20
20.83021049203572
 30
0.0
  0
VERTEX
  5
1A3
  8
LAYER_1
 10
63.1684997468094
 20
20.65704260465821
 30
0.0
  0
VERTEX
  5
1A4
  8
LAYER_1
 10
63.01012162432441
 20
20.48421028409088
 30
0.0
  0
VERTEX
  5
1A5
  8
LAYER_1
 10
62.83831365325565
 20
20.31135737592578
 30
0.0
  0
VERTEX
  5
1A6
  8
LAYER_1
 10
62.61039048852488
 20
20.09063727591621
 30
0.0
  0
VERTEX
  5
1A7
  8
LAYER_1
 10
62.44409870158855
 20
19.96587937103501
 30
0.0
  0
VERTEX
  5
1A8
  8
LAYER_1
 10
62.22188385031595
 20
19.81049604112739
 30
0.0
  0
VERTEX
  5
1A9
  8
LAYER_1
 10
62.00297759163591
 20
19.68031243524695
 30
0.0
  0
VERTEX
  5
1AA
  8
LAYER_1
 10
61.78696738516649
 20
19.57510527328116
 30
0.0
  0
VERTEX
  5
1AB
  8
LAYER_1
 10
61.57344069052572
 20
19.49465127511749
 30
0.0
  0
VERTEX
  5
1AC
  8
LAYER_1
 10
61.43905091857954
 20
19.45898857430259
 30
0.0
  0
VERTEX
  5
1AD
  8
LAYER_1
 10
61.28000442734512
 20
19.42750561449491
 30
0.0
  0
VERTEX
  5
1AE
  8
LAYER_1
 10
61.12460167842531
 20
19.40505630506897
 30
0.0
  0
VERTEX
  5
1AF
  8
LAYER_1
 10
61.00114313342294
 20
19.39649455539932
 30
0.0
  0
VERTEX
  5
1B0
  8
LAYER_1
 10
60.88354210579799
 20
19.40454517378398
 30
0.0
  0
VERTEX
  5
1B1
  8
LAYER_1
 10
60.73552668282757
 20
19.42532830874273
 30
0.0
  0
VERTEX
  5
1B2
  8
LAYER_1
 10
60.58747607042068
 20
19.45379087998273
 30
0.0
  0
VERTEX
  5
1B3
  8
LAYER_1
 10
60.46976947448632
 20
19.48487980721113
 30
0.0
  0
VERTEX
  5
1B4
  8
LAYER_1
 10
60.35598825460994
 20
19.5271482342985
 30
0.0
  0
VERTEX
  5
1B5
  8
LAYER_1
 10
60.2403367310163
 20
19.57849875673478
 30
0.0
  0
VERTEX
  5
1B6
  8
LAYER_1
 10
60.01257214948978
 20
19.70281507825605
 30
0.0
  0
VERTEX
  5
1B7
  8
LAYER_1
 10
59.80477448353184
 20
19.84656675297885
 30
0.0
  0
VERTEX
  5
1B8
  8
LAYER_1
 10
59.7140816043989
 20
19.92221146691705
 30
0.0
  0
VERTEX
  5
1B9
  8
LAYER_1
 10
59.63524248676749
 20
19.99849176210711
 30
0.0
  0
VERTEX
  5
1BA
  8
LAYER_1
 10
59.52972158672729
 20
20.12231224317832
 30
0.0
  0
VERTEX
  5
1BB
  8
LAYER_1
 10
59.44777536261086
 20
20.2501720755182
 30
0.0
  0
VERTEX
  5
1BC
  8
LAYER_1
 10
59.38820336570533
 20
20.38926878663969
 30
0.0
  0
VERTEX
  5
1BD
  8
LAYER_1
 10
59.34980514729788
 20
20.54679990405576
 30
0.0
  0
VERTEX
  5
1BE
  8
LAYER_1
 10
59.33138025867565
 20
20.72996295527933
 30
0.0
  0
VERTEX
  5
1BF
  8
LAYER_1
 10
59.33172825112581
 20
20.94595546782337
 30
0.0
  0
VERTEX
  5
1C0
  8
LAYER_1
 10
59.3496486759355
 20
21.20197496920082
 30
0.0
  0
VERTEX
  5
1C1
  8
LAYER_1
 10
59.38394108439187
 20
21.50521898692462
 30
0.0
  0
VERTEX
  5
1C2
  8
LAYER_1
 10
59.43960881766125
 20
21.94080992418836
 30
0.0
  0
VERTEX
  5
1C3
  8
LAYER_1
 10
59.44273286254303
 20
22.82126770434649
 30
0.0
  0
VERTEX
  5
1C4
  8
LAYER_1
 10
59.41082738124886
 20
23.01496841598128
 30
0.0
  0
VERTEX
  5
1C5
  8
LAYER_1
 10
59.33931590107011
 20
23.36541290784613
 30
0.0
  0
VERTEX
  5
1C6
  8
LAYER_1
 10
59.2423568353293
 20
23.70600838873791
 30
0.0
  0
VERTEX
  5
1C7
  8
LAYER_1
 10
59.12107296452665
 20
24.03454553854282
 30
0.0
  0
VERTEX
  5
1C8
  8
LAYER_1
 10
58.97658706916235
 20
24.34881503714703
 30
0.0
  0
VERTEX
  5
1C9
  8
LAYER_1
 10
58.8100219297366
 20
24.64660756443674
 30
0.0
  0
VERTEX
  5
1CA
  8
LAYER_1
 10
58.62250032674959
 20
24.9257138002981
 30
0.0
  0
VERTEX
  5
1CB
  8
LAYER_1
 10
58.41514504070153
 20
25.18392442461732
 30
0.0
  0
VERTEX
  5
1CC
  8
LAYER_1
 10
58.18907885209261
 20
25.41903011728056
 30
0.0
  0
VERTEX
  5
1CD
  8
LAYER_1
 10
57.99011931650428
 20
25.59353481751718
 30
0.0
  0
VERTEX
  5
1CE
  8
LAYER_1
 10
57.77595431259281
 20
25.75496137948068
 30
0.0
  0
VERTEX
  5
1CF
  8
LAYER_1
 10
57.54902408519466
 20
25.90206411621449
 30
0.0
  0
VERTEX
  5
1D0
  8
LAYER_1
 10
57.31176887914631
 20
26.03359734076206
 30
0.0
  0
VERTEX
  5
1D1
  8
LAYER_1
 10
57.06662893928421
 20
26.14831536616682
 30
0.0
  0
VERTEX
  5
1D2
  8
LAYER_1
 10
56.81604451044483
 20
26.24497250547223
 30
0.0
  0
VERTEX
  5
1D3
  8
LAYER_1
 10
56.56245583746463
 20
26.3223230717217
 30
0.0
  0
VERTEX
  5
1D4
  8
LAYER_1
 10
56.30830316518008
 20
26.37912137795869
 30
0.0
  0
VERTEX
  5
1D5
  8
LAYER_1
 10
56.11543408752397
 20
26.42094892963127
 30
0.0
  0
VERTEX
  5
1D6
  8
LAYER_1
 10
56.10816101326745
 20
26.42812102344801
 30
0.0
  0
VERTEX
  5
1D7
  8
LAYER_1
 10
56.12277728007057
 20
26.43625217239997
 30
0.0
  0
VERTEX
  5
1D8
  8
LAYER_1
 10
56.22108902114294
 20
26.45654075649733
 30
0.0
  0
VERTEX
  5
1D9
  8
LAYER_1
 10
56.35880799976229
 20
26.48352723917798
 30
0.0
  0
VERTEX
  5
1DA
  8
LAYER_1
 10
56.48971412936737
 20
26.51893365171055
 30
0.0
  0
VERTEX
  5
1DB
  8
LAYER_1
 10
56.61357157021202
 20
26.56264306991729
 30
0.0
  0
VERTEX
  5
1DC
  8
LAYER_1
 10
56.73014448255002
 20
26.61453856962044
 30
0.0
  0
VERTEX
  5
1DD
  8
LAYER_1
 10
56.83919702663522
 20
26.67450322664225
 30
0.0
  0
VERTEX
  5
1DE
  8
LAYER_1
 10
56.9404933627214
 20
26.742420116805
 30
0.0
  0
VERTEX
  5
1DF
  8
LAYER_1
 10
57.03379765106239
 20
26.81817231593094
 30
0.0
  0
VERTEX
  5
1E0
  8
LAYER_1
 10
57.11887405191199
 20
26.90164289984231
 30
0.0
  0
VERTEX
  5
1E1
  8
LAYER_1
 10
57.2085637703606
 20
27.00750221444441
 30
0.0
  0
VERTEX
  5
1E2
  8
LAYER_1
 10
57.2815558931659
 20
27.11506026875479
 30
0.0
  0
VERTEX
  5
1E3
  8
LAYER_1
 10
57.34183696957581
 20
27.23100254090094
 30
0.0
  0
VERTEX
  5
1E4
  8
LAYER_1
 10
57.3933935488382
 20
27.3620145090104
 30
0.0
  0
VERTEX
  5
1E5
  8
LAYER_1
 10
57.44579459282919
 20
27.54823124178636
 30
0.0
  0
VERTEX
  5
1E6
  8
LAYER_1
 10
57.47916211194288
 20
27.74723795554751
 30
0.0
  0
VERTEX
  5
1E7
  8
LAYER_1
 10
57.49352524374869
 20
27.95856123262451
 30
0.0
  0
VERTEX
  5
1E8
  8
LAYER_1
 10
57.48891312581604
 20
28.18172765534802
 30
0.0
  0
VERTEX
  5
1E9
  8
LAYER_1
 10
57.46535489571437
 20
28.41626380604871
 30
0.0
  0
VERTEX
  5
1EA
  8
LAYER_1
 10
57.42287969101312
 20
28.66169626705724
 30
0.0
  0
VERTEX
  5
1EB
  8
LAYER_1
 10
57.3615166492817
 20
28.91755162070427
 30
0.0
  0
VERTEX
  5
1EC
  8
LAYER_1
 10
57.28129490808954
 20
29.18335644932046
 30
0.0
  0
VERTEX
  5
1ED
  8
LAYER_1
 10
57.19208442755814
 20
29.45267735560014
 30
0.0
  0
VERTEX
  5
1EE
  8
LAYER_1
 10
57.18035720586655
 20
29.43868920556632
 30
0.0
  0
VERTEX
  5
1EF
  8
LAYER_1
 10
57.11992743675824
 20
29.27502323290561
 30
0.0
  0
VERTEX
  5
1F0
  8
LAYER_1
 10
57.06075764695512
 20
29.11621692718721
 30
0.0
  0
VERTEX
  5
1F1
  8
LAYER_1
 10
56.98421354740242
 20
28.94339232968512
 30
0.0
  0
VERTEX
  5
1F2
  8
LAYER_1
 10
56.90073183782781
 20
28.77857036210603
 30
0.0
  0
VERTEX
  5
1F3
  8
LAYER_1
 10
56.82074921795898
 20
28.6437719461566
 30
0.0
  0
VERTEX
  5
1F4
  8
LAYER_1
 10
56.73323717042091
 20
28.52900539835723
 30
0.0
  0
VERTEX
  5
1F5
  8
LAYER_1
 10
56.62967792591072
 20
28.41948729485603
 30
0.0
  0
VERTEX
  5
1F6
  8
LAYER_1
 10
56.52202743578803
 20
28.32667117108704
 30
0.0
  0
VERTEX
  5
1F7
  8
LAYER_1
 10
56.42224165141249
 20
28.26201056248428
 30
0.0
  0
VERTEX
  5
1F8
  8
LAYER_1
 10
56.32070414899817
 20
28.22392643976909
 30
0.0
  0
VERTEX
  5
1F9
  8
LAYER_1
 10
56.20734925393545
 20
28.20449085731637
 30
0.0
  0
VERTEX
  5
1FA
  8
LAYER_1
 10
56.0911641180907
 20
28.20446575679117
 30
0.0
  0
VERTEX
  5
1FB
  8
LAYER_1
 10
55.98113589333033
 20
28.22461307985856
 30
0.0
  0
VERTEX
  5
1FC
  8
LAYER_1
 10
55.861547607879
 20
28.27155656402025
 30
0.0
  0
VERTEX
  5
1FD
  8
LAYER_1
 10
55.73793805162683
 20
28.34278959927615
 30
0.0
  0
VERTEX
  5
1FE
  8
LAYER_1
 10
55.61167192125968
 20
28.43696490536757
 30
0.0
  0
VERTEX
  5
1FF
  8
LAYER_1
 10
55.48411391346342
 20
28.5527352020358
 30
0.0
  0
VERTEX
  5
200
  8
LAYER_1
 10
55.35662872492394
 20
28.68875320902214
 30
0.0
  0
VERTEX
  5
201
  8
LAYER_1
 10
55.2305810523271
 20
28.84367164606789
 30
0.0
  0
VERTEX
  5
202
  8
LAYER_1
 10
55.10733559235877
 20
29.01614323291435
 30
0.0
  0
VERTEX
  5
203
  8
LAYER_1
 10
54.98825704170484
 20
29.20482068930281
 30
0.0
  0
VERTEX
  5
204
  8
LAYER_1
 10
54.8725345828719
 20
29.39977437125469
 30
0.0
  0
VERTEX
  5
205
  8
LAYER_1
 10
54.37568593279219
 20
30.39320461370643
 30
0.0
  0
VERTEX
  5
206
  8
LAYER_1
 10
54.2545891903354
 20
30.60965174684653
 30
0.0
  0
VERTEX
  5
207
  8
LAYER_1
 10
54.10749141417335
 20
30.85866954304821
 30
0.0
  0
VERTEX
  5
208
  8
LAYER_1
 10
53.95803143730764
 20
31.08345484199134
 30
0.0
  0
VERTEX
  5
209
  8
LAYER_1
 10
53.80487864378031
 20
31.28541395696339
 30
0.0
  0
VERTEX
  5
20A
  8
LAYER_1
 10
53.64670241763339
 20
31.46595320125184
 30
0.0
  0
VERTEX
  5
20B
  8
LAYER_1
 10
53.48217214290891
 20
31.62647888814417
 30
0.0
  0
VERTEX
  5
20C
  8
LAYER_1
 10
53.30995720364892
 20
31.76839733092786
 30
0.0
  0
VERTEX
  5
20D
  8
LAYER_1
 10
53.12872698389545
 20
31.89311484289041
 30
0.0
  0
VERTEX
  5
20E
  8
LAYER_1
 10
52.93715086769051
 20
32.00203773731926
 30
0.0
  0
VERTEX
  5
20F
  8
LAYER_1
 10
52.72900138443588
 20
32.09934837670296
 30
0.0
  0
VERTEX
  5
210
  8
LAYER_1
 10
52.51372444276993
 20
32.18016346450096
 30
0.0
  0
VERTEX
  5
211
  8
LAYER_1
 10
52.28906877694053
 20
32.24486523258828
 30
0.0
  0
VERTEX
  5
212
  8
LAYER_1
 10
52.05278312119555
 20
32.29383591283996
 30
0.0
  0
VERTEX
  5
213
  8
LAYER_1
 10
51.80261620978283
 20
32.32745773713104
 30
0.0
  0
VERTEX
  5
214
  8
LAYER_1
 10
51.53631677695027
 20
32.34611293733654
 30
0.0
  0
VERTEX
  5
215
  8
LAYER_1
 10
51.25163355694572
 20
32.35018374533152
 30
0.0
  0
VERTEX
  5
216
  8
LAYER_1
 10
50.94631528401705
 20
32.340052392991
 30
0.0
  0
VERTEX
  5
217
  8
LAYER_1
 10
50.58532759415222
 20
32.32053604898208
 30
0.0
  0
VERTEX
  5
218
  8
LAYER_1
 10
49.98661630364469
 20
32.23402913753382
 30
0.0
  0
VERTEX
  5
219
  8
LAYER_1
 10
49.74008812520042
 20
32.17315402318911
 30
0.0
  0
VERTEX
  5
21A
  8
LAYER_1
 10
49.42113341129657
 20
32.08395605448145
 30
0.0
  0
VERTEX
  5
21B
  8
LAYER_1
 10
49.11553965570135
 20
31.97762201354621
 30
0.0
  0
VERTEX
  5
21C
  8
LAYER_1
 10
48.82812868213234
 20
31.85600540641336
 30
0.0
  0
VERTEX
  5
21D
  8
LAYER_1
 10
48.56372231430712
 20
31.72095973911283
 30
0.0
  0
VERTEX
  5
21E
  8
LAYER_1
 10
48.2666608864722
 20
31.53955821208241
 30
0.0
  0
VERTEX
  5
21F
  8
LAYER_1
 10
47.97699979286871
 20
31.32998328597908
 30
0.0
  0
VERTEX
  5
220
  8
LAYER_1
 10
47.67283624992663
 20
31.07510390643301
 30
0.0
  0
VERTEX
  5
221
  8
LAYER_1
 10
47.33226747407591
 20
30.75778901907436
 30
0.0
  0
VERTEX
  5
222
  8
LAYER_1
 10
46.87802180070855
 20
30.33006398610942
 30
0.0
  0
VERTEX
  5
223
  8
LAYER_1
 10
46.76837336232818
 20
30.23986521064919
 30
0.0
  0
VERTEX
  5
224
  8
LAYER_1
 10
46.66673046884739
 20
30.16754856016439
 30
0.0
  0
VERTEX
  5
225
  8
LAYER_1
 10
46.55940405826388
 20
30.10422883106898
 30
0.0
  0
VERTEX
  5
226
  8
LAYER_1
 10
46.43270506857533
 20
30.04102081977691
 30
0.0
  0
VERTEX
  5
227
  8
LAYER_1
 10
46.27096453544288
 20
29.97384493568268
 30
0.0
  0
VERTEX
  5
228
  8
LAYER_1
 10
46.11012968918042
 20
29.92582058756543
 30
0.0
  0
VERTEX
  5
229
  8
LAYER_1
 10
45.94140398742913
 20
29.8948389692139
 30
0.0
  0
VERTEX
  5
22A
  8
LAYER_1
 10
45.75599088783014
 20
29.8787912744168
 30
0.0
  0
VERTEX
  5
22B
  8
LAYER_1
 10
45.54025294953667
 20
29.86860850010707
 30
0.0
  0
VERTEX
  5
22C
  8
LAYER_1
 10
45.37737432703309
 20
30.02525162328777
 30
0.0
  0
VERTEX
  5
22D
  8
LAYER_1
 10
45.1916362176564
 20
30.1968800726064
 30
0.0
  0
VERTEX
  5
22E
  8
LAYER_1
 10
45.00187559792069
 20
30.35820774155349
 30
0.0
  0
VERTEX
  5
22F
  8
LAYER_1
 10
44.80760285673956
 20
30.50944863839641
 30
0.0
  0
VERTEX
  5
230
  8
LAYER_1
 10
44.60832838302663
 20
30.65081677140251
 30
0.0
  0
VERTEX
  5
231
  8
LAYER_1
 10
44.40356256569552
 20
30.78252614883916
 30
0.0
  0
VERTEX
  5
232
  8
LAYER_1
 10
44.19281579365985
 20
30.90479077897373
 30
0.0
  0
VERTEX
  5
233
  8
LAYER_1
 10
43.97559845583322
 20
31.01782467007355
 30
0.0
  0
VERTEX
  5
234
  8
LAYER_1
 10
43.75142094112925
 20
31.12184183040601
 30
0.0
  0
VERTEX
  5
235
  8
LAYER_1
 10
43.51979363846157
 20
31.21705626823845
 30
0.0
  0
VERTEX
  5
236
  8
LAYER_1
 10
43.28022693674377
 20
31.30368199183823
 30
0.0
  0
VERTEX
  5
237
  8
LAYER_1
 10
43.03223122488949
 20
31.38193300947272
 30
0.0
  0
VERTEX
  5
238
  8
LAYER_1
 10
42.77531689181232
 20
31.45202332940926
 30
0.0
  0
VERTEX
  5
239
  8
LAYER_1
 10
42.50899432642589
 20
31.51416695991524
 30
0.0
  0
VERTEX
  5
23A
  8
LAYER_1
 10
42.23277391764381
 20
31.56857790925798
 30
0.0
  0
VERTEX
  5
23B
  8
LAYER_1
 10
41.9461660543797
 20
31.61547018570487
 30
0.0
  0
VERTEX
  5
23C
  8
LAYER_1
 10
41.64868112554717
 20
31.65505779752327
 30
0.0
  0
VERTEX
  5
23D
  8
LAYER_1
 10
41.44032635210851
 20
31.67707547169731
 30
0.0
  0
VERTEX
  5
23E
  8
LAYER_1
 10
41.23104387077719
 20
31.68936257683864
 30
0.0
  0
VERTEX
  5
23F
  8
LAYER_1
 10
40.49528143354001
 20
31.69587055170861
 30
0.0
  0
VERTEX
  5
240
  8
LAYER_1
 10
39.68526027579454
 20
31.69589002693726
 30
0.0
  0
VERTEX
  5
241
  8
LAYER_1
 10
39.34188174153287
 20
31.6645802856544
 30
0.0
  0
VERTEX
  5
242
  8
LAYER_1
 10
38.6199063618032
 20
31.58905875386828
 30
0.0
  0
VERTEX
  5
243
  8
LAYER_1
 10
37.88912640427195
 20
31.49266323457273
 30
0.0
  0
VERTEX
  5
244
  8
LAYER_1
 10
37.02998155085805
 20
31.3533445649377
 30
0.0
  0
VERTEX
  5
245
  8
LAYER_1
 10
35.86407350990824
 20
31.14347164842814
 30
0.0
  0
VERTEX
  5
246
  8
LAYER_1
 10
34.75469670690899
 20
30.94146101794468
 30
0.0
  0
VERTEX
  5
247
  8
LAYER_1
 10
34.27044492782202
 20
30.85981351694263
 30
0.0
  0
VERTEX
  5
248
  8
LAYER_1
 10
34.11539142570572
 20
30.8365372882687
 30
0.0
  0
VERTEX
  5
249
  8
LAYER_1
 10
34.10191542972952
 20
30.84604487003256
 30
0.0
  0
VERTEX
  5
24A
  8
LAYER_1
 10
34.08315102632457
 20
30.8754999530745
 30
0.0
  0
VERTEX
  5
24B
  8
LAYER_1
 10
34.03580636818414
 20
30.98311132641238
 30
0.0
  0
VERTEX
  5
24C
  8
LAYER_1
 10
33.9837171429871
 20
31.10959855220858
 30
0.0
  0
VERTEX
  5
24D
  8
LAYER_1
 10
33.92521926947515
 20
31.23077024446651
 30
0.0
  0
VERTEX
  5
24E
  8
LAYER_1
 10
33.86053166615727
 20
31.34643706613297
 30
0.0
  0
VERTEX
  5
24F
  8
LAYER_1
 10
33.78987325154249
 20
31.45640968015477
 30
0.0
  0
VERTEX
  5
250
  8
LAYER_1
 10
33.71346294413981
 20
31.56049874947872
 30
0.0
  0
VERTEX
  5
251
  8
LAYER_1
 10
33.63151966245822
 20
31.65851493705163
 30
0.0
  0
VERTEX
  5
252
  8
LAYER_1
 10
33.54426232500675
 20
31.75026890582028
 30
0.0
  0
VERTEX
  5
253
  8
LAYER_1
 10
33.45190985029438
 20
31.83557131873151
 30
0.0
  0
VERTEX
  5
254
  8
LAYER_1
 10
33.35468115683013
 20
31.9142328387321
 30
0.0
  0
VERTEX
  5
255
  8
LAYER_1
 10
33.252795163123
 20
31.98606412876887
 30
0.0
  0
VERTEX
  5
256
  8
LAYER_1
 10
33.14647078768199
 20
32.05087585178862
 30
0.0
  0
VERTEX
  5
257
  8
LAYER_1
 10
33.03592694901613
 20
32.10847867073815
 30
0.0
  0
VERTEX
  5
258
  8
LAYER_1
 10
32.9213825656344
 20
32.15868324856428
 30
0.0
  0
VERTEX
  5
259
  8
LAYER_1
 10
32.80305655604582
 20
32.2013002482138
 30
0.0
  0
VERTEX
  5
25A
  8
LAYER_1
 10
32.68116783875939
 20
32.23614033263353
 30
0.0
  0
VERTEX
  5
25B
  8
LAYER_1
 10
32.55593533228411
 20
32.26301416477026
 30
0.0
  0
VERTEX
  5
25C
  8
LAYER_1
 10
32.3714471339708
 20
32.28396142242474
 30
0.0
  0
VERTEX
  5
25D
  8
LAYER_1
 10
32.13093252203775
 20
32.28592092437626
 30
0.0
  0
VERTEX
  5
25E
  8
LAYER_1
 10
31.61146243174446
 20
32.27958039324471
 30
0.0
  0
VERTEX
  5
25F
  8
LAYER_1
 10
31.3561296754986
 20
32.27928627108054
 30
0.0
  0
VERTEX
  5
260
  8
LAYER_1
 10
31.25668911529043
 20
32.3185430794681
 30
0.0
  0
VERTEX
  5
261
  8
LAYER_1
 10
31.15960723725966
 20
32.36637989247784
 30
0.0
  0
VERTEX
  5
262
  8
LAYER_1
 10
31.07665142574378
 20
32.42806892929059
 30
0.0
  0
VERTEX
  5
263
  8
LAYER_1
 10
31.00744686906601
 20
32.50436798210733
 30
0.0
  0
VERTEX
  5
264
  8
LAYER_1
 10
30.95161875554957
 20
32.59603484312904
 30
0.0
  0
VERTEX
  5
265
  8
LAYER_1
 10
30.90879227351767
 20
32.70382730455669
 30
0.0
  0
VERTEX
  5
266
  8
LAYER_1
 10
30.87859261129354
 20
32.82850315859126
 30
0.0
  0
VERTEX
  5
267
  8
LAYER_1
 10
30.8606449572004
 20
32.97082019743372
 30
0.0
  0
VERTEX
  5
268
  8
LAYER_1
 10
30.85457449956145
 20
33.13153621328506
 30
0.0
  0
VERTEX
  5
269
  8
LAYER_1
 10
30.86007160668533
 20
33.31730130920714
 30
0.0
  0
VERTEX
  5
26A
  8
LAYER_1
 10
30.87967357635586
 20
33.54326648048413
 30
0.0
  0
VERTEX
  5
26B
  8
LAYER_1
 10
30.97664075845613
 20
34.25841426860064
 30
0.0
  0
VERTEX
  5
26C
  8
LAYER_1
 10
31.07733893896065
 20
34.98038964833031
 30
0.0
  0
VERTEX
  5
26D
  8
LAYER_1
 10
31.10161258195706
 20
35.28757273361136
 30
0.0
  0
VERTEX
  5
26E
  8
LAYER_1
 10
31.10908546310406
 20
35.71997418366314
 30
0.0
  0
VERTEX
  5
26F
  8
LAYER_1
 10
31.10960149705433
 20
36.20422596275011
 30
0.0
  0
VERTEX
  5
270
  8
LAYER_1
 10
31.07776667206463
 20
36.3979266743849
 30
0.0
  0
VERTEX
  5
271
  8
LAYER_1
 10
31.00789888593484
 20
36.74093534490097
 30
0.0
  0
VERTEX
  5
272
  8
LAYER_1
 10
30.91315929869625
 20
37.07114748648621
 30
0.0
  0
VERTEX
  5
273
  8
LAYER_1
 10
30.79357693032114
 20
37.38850794740664
 30
0.0
  0
VERTEX
  5
274
  8
LAYER_1
 10
30.64918080078179
 20
37.69296157592828
 30
0.0
  0
VERTEX
  5
275
  8
LAYER_1
 10
30.47999993005048
 20
37.98445322031716
 30
0.0
  0
VERTEX
  5
276
  8
LAYER_1
 10
30.28606333809948
 20
38.26292772883932
 30
0.0
  0
VERTEX
  5
277
  8
LAYER_1
 10
30.06740004490107
 20
38.52832994976077
 30
0.0
  0
VERTEX
  5
278
  8
LAYER_1
 10
29.82403907042754
 20
38.78060473134754
 30
0.0
  0
VERTEX
  5
279
  8
LAYER_1
 10
29.60187973906235
 20
38.99406930233349
 30
0.0
  0
VERTEX
  5
27A
  8
LAYER_1
 10
29.64256981613025
 20
39.00246896384532
 30
0.0
  0
VERTEX
  5
27B
  8
LAYER_1
 10
29.85410366835943
 20
39.05242922448819
 30
0.0
  0
VERTEX
  5
27C
  8
LAYER_1
 10
30.00022469405508
 20
39.11077833636012
 30
0.0
  0
VERTEX
  5
27D
  8
LAYER_1
 10
30.07818918060364
 20
39.15222065828372
 30
0.0
  0
VERTEX
  5
27E
  8
LAYER_1
 10
30.15283229798798
 20
39.20048665804032
 30
0.0
  0
VERTEX
  5
27F
  8
LAYER_1
 10
30.2918687311415
 20
39.31699093781913
 30
0.0
  0
VERTEX
  5
280
  8
LAYER_1
 10
30.41676260527056
 20
39.45929366922982
 30
0.0
  0
VERTEX
  5
281
  8
LAYER_1
 10
30.52694253213009
 20
39.62639734580566
 30
0.0
  0
VERTEX
  5
282
  8
LAYER_1
 10
30.62183712347503
 20
39.81730446107991
 30
0.0
  0
VERTEX
  5
283
  8
LAYER_1
 10
30.70087499106029
 20
40.03101750858583
 30
0.0
  0
VERTEX
  5
284
  8
LAYER_1
 10
30.76348474664081
 20
40.2665389818567
 30
0.0
  0
VERTEX
  5
285
  8
LAYER_1
 10
30.80909500197152
 20
40.52287137442576
 30
0.0
  0
VERTEX
  5
286
  8
LAYER_1
 10
30.81224508249201
 20
40.57735166674065
 30
0.0
  0
VERTEX
  5
287
  8
LAYER_1
 10
30.80319490321608
 20
40.59490567398554
 30
0.0
  0
VERTEX
  5
288
  8
LAYER_1
 10
30.78454224550004
 20
40.57568928305884
 30
0.0
  0
VERTEX
  5
289
  8
LAYER_1
 10
30.75888489070022
 20
40.51985838085893
 30
0.0
  0
VERTEX
  5
28A
  8
LAYER_1
 10
30.73081561831479
 20
40.46323945285405
 30
0.0
  0
VERTEX
  5
28B
  8
LAYER_1
 10
30.69126225492047
 20
40.40962741106715
 30
0.0
  0
VERTEX
  5
28C
  8
LAYER_1
 10
30.64075068875767
 20
40.35937736027281
 30
0.0
  0
VERTEX
  5
28D
  8
LAYER_1
 10
30.57980680806678
 20
40.31284440524561
 30
0.0
  0
VERTEX
  5
28E
  8
LAYER_1
 10
30.50895650108819
 20
40.27038365076011
 30
0.0
  0
VERTEX
  5
28F
  8
LAYER_1
 10
30.42872565606232
 20
40.2323502015909
 30
0.0
  0
VERTEX
  5
290
  8
LAYER_1
 10
30.33964016122955
 20
40.19909916251254
 30
0.0
  0
VERTEX
  5
291
  8
LAYER_1
 10
30.24222590483029
 20
40.1709856382996
 30
0.0
  0
VERTEX
  5
292
  8
LAYER_1
 10
30.15018574791074
 20
40.15095380906362
 30
0.0
  0
VERTEX
  5
293
  8
LAYER_1
 10
30.05465686935817
 20
40.1392721049543
 30
0.0
  0
VERTEX
  5
294
  8
LAYER_1
 10
29.74489193780921
 20
40.13260604034136
 30
0.0
  0
VERTEX
  5
295
  8
LAYER_1
 10
29.40151340354755
 20
40.1328300243304
 30
0.0
  0
VERTEX
  5
296
  8
LAYER_1
 10
28.85562957984951
 20
40.21420235383603
 30
0.0
  0
VERTEX
  5
297
  8
LAYER_1
 10
28.70595175722262
 20
40.25697818163243
 30
0.0
  0
VERTEX
  5
298
  8
LAYER_1
 10
28.49246580637153
 20
40.33111509291166
 30
0.0
  0
VERTEX
  5
299
  8
LAYER_1
 10
28.30258875217154
 20
40.42575485559735
 30
0.0
  0
VERTEX
  5
29A
  8
LAYER_1
 10
28.13138052486568
 20
40.54380734897716
 30
0.0
  0
VERTEX
  5
29B
  8
LAYER_1
 10
27.973901054697
 20
40.68818245233875
 30
0.0
  0
VERTEX
  5
29C
  8
LAYER_1
 10
27.86828322503148
 20
40.80628762104677
 30
0.0
  0
VERTEX
  5
29D
  8
LAYER_1
 10
27.77655273804604
 20
40.9285288328859
 30
0.0
  0
VERTEX
  5
29E
  8
LAYER_1
 10
27.690659668306
 20
41.06670839523298
 30
0.0
  0
VERTEX
  5
29F
  8
LAYER_1
 10
27.60255409037668
 20
41.23262861546486
 30
0.0
  0
VERTEX
  5
2A0
  8
LAYER_1
 10
27.50792567780235
 20
41.42181785920302
 30
0.0
  0
VERTEX
  5
2A1
  8
LAYER_1
 10
27.15636852778869
 20
42.32493149024889
 30
0.0
  0
VERTEX
  5
2A2
  8
LAYER_1
 10
27.07067043034691
 20
42.51698501417017
 30
0.0
  0
VERTEX
  5
2A3
  8
LAYER_1
 10
26.95551880799612
 20
42.75653696941649
 30
0.0
  0
VERTEX
  5
2A4
  8
LAYER_1
 10
26.83281377400253
 20
42.97471475076951
 30
0.0
  0
VERTEX
  5
2A5
  8
LAYER_1
 10
26.70076638001953
 20
43.17359985084522
 30
0.0
  0
VERTEX
  5
2A6
  8
LAYER_1
 10
26.55758767770051
 20
43.35527376225962
 30
0.0
  0
VERTEX
  5
2A7
  8
LAYER_1
 10
26.40148871869885
 20
43.52181797762869
 30
0.0
  0
VERTEX
  5
2A8
  8
LAYER_1
 10
26.23068055466795
 20
43.67531398956839
 30
0.0
  0
VERTEX
  5
2A9
  8
LAYER_1
 10
26.04337423726119
 20
43.81784329069475
 30
0.0
  0
VERTEX
  5
2AA
  8
LAYER_1
 10
25.83778081813198
 20
43.95148737362375
 30
0.0
  0
VERTEX
  5
2AB
  8
LAYER_1
 10
25.55295046714816
 20
44.11150989864254
 30
0.0
  0
VERTEX
  5
2AC
  8
LAYER_1
 10
25.26435996424729
 20
44.25078212892105
 30
0.0
  0
VERTEX
  5
2AD
  8
LAYER_1
 10
24.97477918167345
 20
44.36849170027153
 30
0.0
  0
VERTEX
  5
2AE
  8
LAYER_1
 10
24.68697799167074
 20
44.46382624850624
 30
0.0
  0
VERTEX
  5
2AF
  8
LAYER_1
 10
24.40372626648323
 20
44.5359734094374
 30
0.0
  0
VERTEX
  5
2B0
  8
LAYER_1
 10
24.12779387835501
 20
44.5841208188773
 30
0.0
  0
VERTEX
  5
2B1
  8
LAYER_1
 10
23.86195069953019
 20
44.60745611263815
 30
0.0
  0
VERTEX
  5
2B2
  8
LAYER_1
 10
23.60896660225283
 20
44.60516692653223
 30
0.0
  0
VERTEX
  5
2B3
  8
LAYER_1
 10
23.3395615871588
 20
44.57874485126589
 30
0.0
  0
VERTEX
  5
2B4
  8
LAYER_1
 10
23.26472267584536
 20
44.57010079758525
 30
0.0
  0
VERTEX
  5
2B5
  8
LAYER_1
 10
23.35116450988853
 20
44.66214422365872
 30
0.0
  0
VERTEX
  5
2B6
  8
LAYER_1
 10
23.40671212718566
 20
44.72370267232027
 30
0.0
  0
VERTEX
  5
2B7
  8
LAYER_1
 10
23.45344602948265
 20
44.78866929968991
 30
0.0
  0
VERTEX
  5
2B8
  8
LAYER_1
 10
23.49151827311194
 20
44.85749650857097
 30
0.0
  0
VERTEX
  5
2B9
  8
LAYER_1
 10
23.52108091440596
 20
44.93063670176679
 30
0.0
  0
VERTEX
  5
2BA
  8
LAYER_1
 10
23.54228600969714
 20
45.00854228208068
 30
0.0
  0
VERTEX
  5
2BB
  8
LAYER_1
 10
23.55528561531793
 20
45.09166565231596
 30
0.0
  0
VERTEX
  5
2BC
  8
LAYER_1
 10
23.56023178760076
 20
45.18045921527597
 30
0.0
  0
VERTEX
  5
2BD
  8
LAYER_1
 10
23.55727658287806
 20
45.27537537376401
 30
0.0
  0
VERTEX
  5
2BE
  8
LAYER_1
 10
23.54118751691031
 20
45.4222314557741
 30
0.0
  0
VERTEX
  5
2BF
  8
LAYER_1
 10
23.5138861626873
 20
45.56154149759812
 30
0.0
  0
VERTEX
  5
2C0
  8
LAYER_1
 10
23.47523107829156
 20
45.69361338509613
 30
0.0
  0
VERTEX
  5
2C1
  8
LAYER_1
 10
23.42508082180561
 20
45.81875500412818
 30
0.0
  0
VERTEX
  5
2C2
  8
LAYER_1
 10
23.36329395131194
 20
45.93727424055433
 30
0.0
  0
VERTEX
  5
2C3
  8
LAYER_1
 10
23.28972902489308
 20
46.04947898023462
 30
0.0
  0
VERTEX
  5
2C4
  8
LAYER_1
 10
23.20424460063155
 20
46.15567710902913
 30
0.0
  0
VERTEX
  5
2C5
  8
LAYER_1
 10
23.10669923660986
 20
46.25617651279789
 30
0.0
  0
VERTEX
  5
2C6
  8
LAYER_1
 10
23.00501087673352
 20
46.3444119891657
 30
0.0
  0
VERTEX
  5
2C7
  8
LAYER_1
 10
22.89428370628038
 20
46.42594102955516
 30
0.0
  0
VERTEX
  5
2C8
  8
LAYER_1
 10
22.77501318965699
 20
46.50052295944841
 30
0.0
  0
VERTEX
  5
2C9
  8
LAYER_1
 10
22.64769479126986
 20
46.56791710432759
 30
0.0
  0
VERTEX
  5
2CA
  8
LAYER_1
 10
22.51282397552554
 20
46.62788278967485
 30
0.0
  0
VERTEX
  5
2CB
  8
LAYER_1
 10
22.37089620683055
 20
46.68017934097233
 30
0.0
  0
VERTEX
  5
2CC
  8
LAYER_1
 10
22.22240694959142
 20
46.72456608370216
 30
0.0
  0
VERTEX
  5
2CD
  8
LAYER_1
 10
22.06785166821468
 20
46.76080234334648
 30
0.0
  0
VERTEX
  5
2CE
  8
LAYER_1
 10
21.87275636746639
 20
46.79613305805245
 30
0.0
  0
VERTEX
  5
2CF
  8
LAYER_1
 10
21.87068364361862
 20
46.79053255975981
 30
0.0
  0
VERTEX
  5
2D0
  8
LAYER_1
 10
21.88109956762387
 20
46.77528367826996
 30
0.0
  0
VERTEX
  5
2D1
  8
LAYER_1
 10
21.93166553142399
 20
46.72515644602693
 30
0.0
  0
VERTEX
  5
2D2
  8
LAYER_1
 10
22.05639676847763
 20
46.59484589772973
 30
0.0
  0
VERTEX
  5
2D3
  8
LAYER_1
 10
22.16578627902777
 20
46.44094317704111
 30
0.0
  0
VERTEX
  5
2D4
  8
LAYER_1
 10
22.25194308764111
 20
46.27630261548414
 30
0.0
  0
VERTEX
  5
2D5
  8
LAYER_1
 10
22.28384329889857
 20
46.19397262298098
 30
0.0
  0
VERTEX
  5
2D6
  8
LAYER_1
 10
22.30697621888434
 20
46.11377854458189
 30
0.0
  0
VERTEX
  5
2D7
  8
LAYER_1
 10
22.32188757200027
 20
46.02631895563553
 30
0.0
  0
VERTEX
  5
2D8
  8
LAYER_1
 10
22.32599815937139
 20
45.9389486268046
 30
0.0
  0
VERTEX
  5
2D9
  8
LAYER_1
 10
22.31976216159801
 20
45.85226395359304
 30
0.0
  0
VERTEX
  5
2DA
  8
LAYER_1
 10
22.30363375928042
 20
45.76686133150476
 30
0.0
  0
VERTEX
  5
2DB
  8
LAYER_1
 10
22.27806713301892
 20
45.68333715604371
 30
0.0
  0
VERTEX
  5
2DC
  8
LAYER_1
 10
22.2435164634138
 20
45.60228782271382
 30
0.0
  0
VERTEX
  5
2DD
  8
LAYER_1
 10
22.20043593106536
 20
45.52430972701902
 30
0.0
  0
VERTEX
  5
2DE
  8
LAYER_1
 10
22.1492797165739
 20
45.44999926446324
 30
0.0
  0
VERTEX
  5
2DF
  8
LAYER_1
 10
22.09050200053971
 20
45.37995283055042
 30
0.0
  0
VERTEX
  5
2E0
  8
LAYER_1
 10
22.02455696356311
 20
45.31476682078448
 30
0.0
  0
VERTEX
  5
2E1
  8
LAYER_1
 10
21.95189878624437
 20
45.25503763066936
 30
0.0
  0
VERTEX
  5
2E2
  8
LAYER_1
 10
21.87298164918379
 20
45.201361655709
 30
0.0
  0
VERTEX
  5
2E3
  8
LAYER_1
 10
21.78825973298168
 20
45.15433529140732
 30
0.0
  0
VERTEX
  5
2E4
  8
LAYER_1
 10
21.69818721823833
 20
45.11455493326827
 30
0.0
  0
VERTEX
  5
2E5
  8
LAYER_1
 10
21.60321828555404
 20
45.08261697679575
 30
0.0
  0
VERTEX
  5
2E6
  8
LAYER_1
 10
21.5038071155291
 20
45.05911781749372
 30
0.0
  0
VERTEX
  5
2E7
  8
LAYER_1
 10
21.40678254430401
 20
45.04539703011777
 30
0.0
  0
VERTEX
  5
2E8
  8
LAYER_1
 10
21.29391145385966
 20
45.03777736015218
 30
0.0
  0
VERTEX
  5
2E9
  8
LAYER_1
 10
21.01971958786449
 20
45.04088693107396
 30
0.0
  0
VERTEX
  5
2EA
  8
LAYER_1
 10
20.67941126264627
 20
45.06853764750277
 30
0.0
  0
VERTEX
  5
2EB
  8
LAYER_1
 10
20.27116622330771
 20
45.12082062668236
 30
0.0
  0
VERTEX
  5
2EC
  8
LAYER_1
 10
19.60201831038753
 20
45.21272620270977
 30
0.0
  0
VERTEX
  5
2ED
  8
LAYER_1
 10
19.39384507399139
 20
45.22766469365119
 30
0.0
  0
VERTEX
  5
2EE
  8
LAYER_1
 10
19.15298484250688
 20
45.23376948260042
 30
0.0
  0
VERTEX
  5
2EF
  8
LAYER_1
 10
18.88884750845944
 20
45.23358360497942
 30
0.0
  0
VERTEX
  5
2F0
  8
LAYER_1
 10
18.71375220973036
 20
45.20299160524277
 30
0.0
  0
VERTEX
  5
2F1
  8
LAYER_1
 10
18.55045654499062
 20
45.16905175651506
 30
0.0
  0
VERTEX
  5
2F2
  8
LAYER_1
 10
18.40096547374152
 20
45.12607668523876
 30
0.0
  0
VERTEX
  5
2F3
  8
LAYER_1
 10
18.25932822637951
 20
45.07208434189632
 30
0.0
  0
VERTEX
  5
2F4
  8
LAYER_1
 10
18.11959403330101
 20
45.00509267697019
 30
0.0
  0
VERTEX
  5
2F5
  8
LAYER_1
 10
17.96666100425328
 20
44.9245315278171
 30
0.0
  0
VERTEX
  5
2F6
  8
LAYER_1
 10
17.85545669925357
 20
45.02575414776138
 30
0.0
  0
VERTEX
  5
2F7
  8
LAYER_1
 10
17.65751709840641
 20
45.18814219959636
 30
0.0
  0
VERTEX
  5
2F8
  8
LAYER_1
 10
17.41590719185087
 20
45.35668651210518
 30
0.0
  0
VERTEX
  5
2F9
  8
LAYER_1
 10
17.14207365907728
 20
45.52393009557999
 30
0.0
  0
VERTEX
  5
2FA
  8
LAYER_1
 10
16.84746317957598
 20
45.68241596031294
 30
0.0
  0
VERTEX
  5
2FB
  8
LAYER_1
 10
16.61726643565146
 20
45.79830129819685
 30
0.0
  0
VERTEX
  5
2FC
  8
LAYER_1
 10
16.30078860938399
 20
45.93083654882692
 30
0.0
  0
VERTEX
  5
2FD
  8
LAYER_1
 10
16.29090467167947
 20
45.9209526111017
 30
0.0
  0
VERTEX
  5
2FE
  8
LAYER_1
 10
16.33449939831378
 20
45.7378200995656
 30
0.0
  0
VERTEX
  5
2FF
  8
LAYER_1
 10
16.40042705139297
 20
45.39620518760103
 30
0.0
  0
VERTEX
  5
300
  8
LAYER_1
 10
16.42275997783785
 20
45.23772278717256
 30
0.0
  0
VERTEX
  5
301
  8
LAYER_1
 10
16.42356572401667
 20
44.14595513977648
 30
0.0
  0
VERTEX
  5
302
  8
LAYER_1
 10
16.28269247919137
 20
44.16356429537963
 30
0.0
  0
VERTEX
  5
303
  8
LAYER_1
 10
11.28971235082031
 20
47.31560314834575
 30
0.0
  0
VERTEX
  5
304
  8
LAYER_1
 10
8.305744990958685
 20
49.21739195348732
 30
0.0
  0
VERTEX
  5
305
  8
LAYER_1
 10
4.672932384890254
 20
51.50658218189847
 30
0.0
  0
VERTEX
  5
306
  8
LAYER_1
 10
4.034511822603555
 20
51.9076449669458
 30
0.0
  0
VERTEX
  5
307
  8
LAYER_1
 10
4.023081001002916
 20
51.89621414531322
 30
0.0
  0
VERTEX
  5
308
  8
LAYER_1
 10
4.04308483678783
 20
51.86104262685732
 30
0.0
  0
VERTEX
  5
309
  8
LAYER_1
 10
4.10723095741203
 20
51.79253310860695
 30
0.0
  0
VERTEX
  5
30A
  8
LAYER_1
 10
4.202811735421784
 20
51.70028289353326
 30
0.0
  0
VERTEX
  5
30B
  8
LAYER_1
 10
13.81741069474859
 20
43.38876144884048
 30
0.0
  0
VERTEX
  5
30C
  8
LAYER_1
 10
13.815046016287
 20
43.36181514597283
 30
0.0
  0
VERTEX
  5
30D
  8
LAYER_1
 10
13.78562079440024
 20
43.30523253009056
 30
0.0
  0
VERTEX
  5
30E
  8
LAYER_1
 10
13.71819566046961
 20
43.20703296401751
 30
0.0
  0
VERTEX
  5
30F
  8
LAYER_1
 10
13.50044589389167
 20
42.89940531042506
 30
0.0
  0
VERTEX
  5
310
  8
LAYER_1
 10
13.36942277048188
 20
42.72820650136956
 30
0.0
  0
VERTEX
  5
311
  8
LAYER_1
 10
13.22750398204265
 20
42.56907440975345
 30
0.0
  0
VERTEX
  5
312
  8
LAYER_1
 10
13.09234498697607
 20
42.44656396670995
 30
0.0
  0
VERTEX
  5
313
  8
LAYER_1
 10
13.02814917450897
 20
42.40194610261584
 30
0.0
  0
VERTEX
  5
314
  8
LAYER_1
 10
12.96105399534754
 20
42.36604785073581
 30
0.0
  0
VERTEX
  5
315
  8
LAYER_1
 10
12.88719308193792
 20
42.33709024151661
 30
0.0
  0
VERTEX
  5
316
  8
LAYER_1
 10
12.80270006672625
 20
42.31329430540494
 30
0.0
  0
VERTEX
  5
317
  8
LAYER_1
 10
12.5863522606814
 20
42.27407157429117
 30
0.0
  0
VERTEX
  5
318
  8
LAYER_1
 10
12.49988894081978
 20
42.26149000059225
 30
0.0
  0
VERTEX
  5
319
  8
LAYER_1
 10
12.62959630289188
 20
42.14140086591404
 30
0.0
  0
VERTEX
  5
31A
  8
LAYER_1
 10
12.77240489944587
 20
42.02808363251656
 30
0.0
  0
VERTEX
  5
31B
  8
LAYER_1
 10
12.93044163153251
 20
41.93757087168083
 30
0.0
  0
VERTEX
  5
31C
  8
LAYER_1
 10
13.10191868928103
 20
41.87016800051455
 30
0.0
  0
VERTEX
  5
31D
  8
LAYER_1
 10
13.28504826282065
 20
41.82618043612538
 30
0.0
  0
VERTEX
  5
31E
  8
LAYER_1
 10
13.47804254228059
 20
41.80591359562098
 30
0.0
  0
VERTEX
  5
31F
  8
LAYER_1
 10
13.67911371779008
 20
41.80967289610905
 30
0.0
  0
VERTEX
  5
320
  8
LAYER_1
 10
13.88647397947832
 20
41.83776375469724
 30
0.0
  0
VERTEX
  5
321
  8
LAYER_1
 10
14.09833551747457
 20
41.89049158849321
 30
0.0
  0
VERTEX
  5
322
  8
LAYER_1
 10
14.18962961270829
 20
41.91303544641521
 30
0.0
  0
VERTEX
  5
323
  8
LAYER_1
 10
14.14401996589145
 20
41.80362398660761
 30
0.0
  0
VERTEX
  5
324
  8
LAYER_1
 10
14.09772478715836
 20
41.6913322314807
 30
0.0
  0
VERTEX
  5
325
  8
LAYER_1
 10
14.06779059557933
 20
41.58154859168021
 30
0.0
  0
VERTEX
  5
326
  8
LAYER_1
 10
14.05216210602115
 20
41.46401921350913
 30
0.0
  0
VERTEX
  5
327
  8
LAYER_1
 10
14.0487840333506
 20
41.32849024327044
 30
0.0
  0
VERTEX
  5
328
  8
LAYER_1
 10
14.06003541816908
 20
41.17129279411434
 30
0.0
  0
VERTEX
  5
329
  8
LAYER_1
 10
14.09102136597638
 20
41.02181525756401
 30
0.0
  0
VERTEX
  5
32A
  8
LAYER_1
 10
14.14445886791025
 20
40.8703731684793
 30
0.0
  0
VERTEX
  5
32B
  8
LAYER_1
 10
14.22306491510845
 20
40.70728206172009
 30
0.0
  0
VERTEX
  5
32C
  8
LAYER_1
 10
14.30320445410477
 20
40.57059319662122
 30
0.0
  0
VERTEX
  5
32D
  8
LAYER_1
 10
14.39291545954566
 20
40.44554259182234
 30
0.0
  0
VERTEX
  5
32E
  8
LAYER_1
 10
14.5003882294337
 20
40.3217961202152
 30
0.0
  0
VERTEX
  5
32F
  8
LAYER_1
 10
14.63381306177145
 20
40.18901965469153
 30
0.0
  0
VERTEX
  5
330
  8
LAYER_1
 10
14.78106751587413
 20
40.05005436065178
 30
0.0
  0
VERTEX
  5
331
  8
LAYER_1
 10
14.56063479062933
 20
39.44782683193815
 30
0.0
  0
VERTEX
  5
332
  8
LAYER_1
 10
14.06780483096947
 20
38.07960103448693
 30
0.0
  0
VERTEX
  5
333
  8
LAYER_1
 10
13.71836336763569
 20
37.1002824107881
 30
0.0
  0
VERTEX
  5
334
  8
LAYER_1
 10
13.67232985551396
 20
36.97670815341725
 30
0.0
  0
VERTEX
  5
335
  8
LAYER_1
 10
13.63665173222048
 20
36.90248701217348
 30
0.0
  0
VERTEX
  5
336
  8
LAYER_1
 10
13.59440235003296
 20
36.85012351447319
 30
0.0
  0
VERTEX
  5
337
  8
LAYER_1
 10
13.52865506122907
 20
36.79212218773275
 30
0.0
  0
VERTEX
  5
338
  8
LAYER_1
 10
13.40717713211809
 20
36.6800492431972
 30
0.0
  0
VERTEX
  5
339
  8
LAYER_1
 10
13.27332230498321
 20
36.54377665940343
 30
0.0
  0
VERTEX
  5
33A
  8
LAYER_1
 10
13.13065362622525
 20
36.3902709991682
 30
0.0
  0
VERTEX
  5
33B
  8
LAYER_1
 10
13.06902158161418
 20
36.30387436102599
 30
0.0
  0
VERTEX
  5
33C
  8
LAYER_1
 10
12.95870003625091
 20
36.13545694409411
 30
0.0
  0
VERTEX
  5
33D
  8
LAYER_1
 10
12.86417850366508
 20
35.96160702844574
 30
0.0
  0
VERTEX
  5
33E
  8
LAYER_1
 10
12.7853466494488
 20
35.78209971244124
 30
0.0
  0
VERTEX
  5
33F
  8
LAYER_1
 10
12.72209413919421
 20
35.596710094441
 30
0.0
  0
VERTEX
  5
340
  8
LAYER_1
 10
12.69406013520959
 20
35.49361789369399
 30
0.0
  0
VERTEX
  5
341
  8
LAYER_1
 10
12.67961429919208
 20
35.39558163578117
 30
0.0
  0
VERTEX
  5
342
  8
LAYER_1
 10
12.6748331102886
 20
35.00680338173505
 30
0.0
  0
VERTEX
  5
343
  8
LAYER_1
 10
12.67685064003419
 20
34.58418364725915
 30
0.0
  0
VERTEX
  5
344
  8
LAYER_1
 10
12.72098129411714
 20
34.38167835782278
 30
0.0
  0
VERTEX
  5
345
  8
LAYER_1
 10
12.76123439367414
 20
34.2168153595201
 30
0.0
  0
VERTEX
  5
346
  8
LAYER_1
 10
12.80729923162607
 20
34.06680464275586
 30
0.0
  0
VERTEX
  5
347
  8
LAYER_1
 10
12.86017886023122
 20
33.92977763624954
 30
0.0
  0
VERTEX
  5
348
  8
LAYER_1
 10
12.92087633174791
 20
33.80386576872063
 30
0.0
  0
VERTEX
  5
349
  8
LAYER_1
 10
12.99039469843444
 20
33.68720046888859
 30
0.0
  0
VERTEX
  5
34A
  8
LAYER_1
 10
13.06973701254912
 20
33.57791316547294
 30
0.0
  0
VERTEX
  5
34B
  8
LAYER_1
 10
13.15990632635026
 20
33.47413528719313
 30
0.0
  0
VERTEX
  5
34C
  8
LAYER_1
 10
13.26190569209616
 20
33.37399826276865
 30
0.0
  0
VERTEX
  5
34D
  8
LAYER_1
 10
13.38073464431306
 20
33.28318684288038
 30
0.0
  0
VERTEX
  5
34E
  8
LAYER_1
 10
13.53135861850767
 20
33.19459967914297
 30
0.0
  0
VERTEX
  5
34F
  8
LAYER_1
 10
13.69713810241161
 20
33.11697763720188
 30
0.0
  0
VERTEX
  5
350
  8
LAYER_1
 10
13.8614335837565
 20
33.05906158270261
 30
0.0
  0
VERTEX
  5
351
  8
LAYER_1
 10
13.98231182385327
 20
33.02942015677148
 30
0.0
  0
VERTEX
  5
352
  8
LAYER_1
 10
14.11236110954769
 20
33.00641881775002
 30
0.0
  0
VERTEX
  5
353
  8
LAYER_1
 10
14.38676745937793
 20
32.98088896168358
 30
0.0
  0
VERTEX
  5
354
  8
LAYER_1
 10
14.6582419165441
 20
32.98357713699822
 30
0.0
  0
VERTEX
  5
355
  8
LAYER_1
 10
14.78462633640844
 20
32.99584833720311
 30
0.0
  0
VERTEX
  5
356
  8
LAYER_1
 10
14.9003737643431
 20
33.01558846618887
 30
0.0
  0
VERTEX
  5
357
  8
LAYER_1
 10
15.06675637165179
 20
33.0609962560064
 30
0.0
  0
VERTEX
  5
358
  8
LAYER_1
 10
15.22186466134831
 20
33.12298104868703
 30
0.0
  0
VERTEX
  5
359
  8
LAYER_1
 10
15.36514133686065
 20
33.20108871134165
 30
0.0
  0
VERTEX
  5
35A
  8
LAYER_1
 10
15.49602910161681
 20
33.29486511108112
 30
0.0
  0
VERTEX
  5
35B
  8
LAYER_1
 10
15.61397065904479
 20
33.40385611501634
 30
0.0
  0
VERTEX
  5
35C
  8
LAYER_1
 10
15.7184087125726
 20
33.52760759025819
 30
0.0
  0
VERTEX
  5
35D
  8
LAYER_1
 10
15.80878596562823
 20
33.66566540391753
 30
0.0
  0
VERTEX
  5
35E
  8
LAYER_1
 10
15.88454512163968
 20
33.81757542310524
 30
0.0
  0
VERTEX
  5
35F
  8
LAYER_1
 10
15.92576406937811
 20
33.92918086927713
 30
0.0
  0
VERTEX
  5
360
  8
LAYER_1
 10
15.96737788832286
 20
34.0673687204775
 30
0.0
  0
VERTEX
  5
361
  8
LAYER_1
 10
16.00255374338497
 20
34.20738412529963
 30
0.0
  0
VERTEX
  5
362
  8
LAYER_1
 10
16.0244587994755
 20
34.32447223233678
 30
0.0
  0
VERTEX
  5
363
  8
LAYER_1
 10
16.04675743244088
 20
34.44216409706171
 30
0.0
  0
VERTEX
  5
364
  8
LAYER_1
 10
16.23896708422188
 20
34.48691903513491
 30
0.0
  0
VERTEX
  5
365
  8
LAYER_1
 10
16.47138713597633
 20
34.54441479734314
 30
0.0
  0
VERTEX
  5
366
  8
LAYER_1
 10
16.71970916196798
 20
34.62540076773621
 30
0.0
  0
VERTEX
  5
367
  8
LAYER_1
 10
16.97302195354454
 20
34.72592878146452
 30
0.0
  0
VERTEX
  5
368
  8
LAYER_1
 10
17.22041430205371
 20
34.84205067367846
 30
0.0
  0
VERTEX
  5
369
  8
LAYER_1
 10
17.50940808483896
 20
34.98919422613189
 30
0.0
  0
VERTEX
  5
36A
  8
LAYER_1
 10
17.6796577063559
 20
35.09698798671447
 30
0.0
  0
VERTEX
  5
36B
  8
LAYER_1
 10
17.86422750856585
 20
35.22162959956044
 30
0.0
  0
VERTEX
  5
36C
  8
LAYER_1
 10
18.06890650068512
 20
35.3699298985635
 30
0.0
  0
VERTEX
  5
36D
  8
LAYER_1
 10
18.42108961274837
 20
35.64953756125049
 30
0.0
  0
VERTEX
  5
36E
  8
LAYER_1
 10
18.55427355199935
 20
35.76399707267105
 30
0.0
  0
VERTEX
  5
36F
  8
LAYER_1
 10
19.20581230931637
 20
36.42297389374398
 30
0.0
  0
VERTEX
  5
370
  8
LAYER_1
 10
19.54038626577646
 20
36.83183650718465
 30
0.0
  0
VERTEX
  5
371
  8
LAYER_1
 10
19.61026031437629
 20
36.92849377452435
 30
0.0
  0
VERTEX
  5
372
  8
LAYER_1
 10
19.67308611694145
 20
37.0032419837262
 30
0.0
  0
VERTEX
  5
373
  8
LAYER_1
 10
19.69528607633454
 20
37.01588965198054
 30
0.0
  0
VERTEX
  5
374
  8
LAYER_1
 10
19.71591524799526
 20
37.015831715975
 30
0.0
  0
VERTEX
  5
375
  8
LAYER_1
 10
19.80604639530385
 20
36.96783556572716
 30
0.0
  0
VERTEX
  5
376
  8
LAYER_1
 10
19.95246016767088
 20
36.86789518865299
 30
0.0
  0
VERTEX
  5
377
  8
LAYER_1
 10
20.11689193318806
 20
36.74361215880012
 30
0.0
  0
VERTEX
  5
378
  8
LAYER_1
 10
20.26107705994712
 20
36.62258805021616
 30
0.0
  0
VERTEX
  5
379
  8
LAYER_1
 10
20.46207263722388
 20
36.42117564109586
 30
0.0
  0
VERTEX
  5
37A
  8
LAYER_1
 10
20.64247103607228
 20
36.20119758127163
 30
0.0
  0
VERTEX
  5
37B
  8
LAYER_1
 10
20.80177527383865
 20
35.9636809203597
 30
0.0
  0
VERTEX
  5
37C
  8
LAYER_1
 10
20.93948836786933
 20
35.70965270797631
 30
0.0
  0
VERTEX
  5
37D
  8
LAYER_1
 10
21.05511333551064
 20
35.44013999373769
 30
0.0
  0
VERTEX
  5
37E
  8
LAYER_1
 10
21.1481531941089
 20
35.15616982726008
 30
0.0
  0
VERTEX
  5
37F
  8
LAYER_1
 10
21.21811096101046
 20
34.85876925815971
 30
0.0
  0
VERTEX
  5
380
  8
LAYER_1
 10
21.26448965356163
 20
34.54896533605282
 30
0.0
  0
VERTEX
  5
381
  8
LAYER_1
 10
21.2766085287859
 20
34.3211468854369
 30
0.0
  0
VERTEX
  5
382
  8
LAYER_1
 10
21.27877946034118
 20
34.02069066795794
 30
0.0
  0
VERTEX
  5
383
  8
LAYER_1
 10
21.2738662501928
 20
33.66850755589469
 30
0.0
  0
VERTEX
  5
384
  8
LAYER_1
 10
21.25576917807587
 20
33.51882973326781
 30
0.0
  0
VERTEX
  5
385
  8
LAYER_1
 10
21.22576280665506
 20
33.30501167817248
 30
0.0
  0
VERTEX
  5
386
  8
LAYER_1
 10
21.18707408304376
 20
33.08786491686114
 30
0.0
  0
VERTEX
  5
387
  8
LAYER_1
 10
21.13978154324596
 20
32.86768264435328
 30
0.0
  0
VERTEX
  5
388
  8
LAYER_1
 10
21.08396372326563
 20
32.64475805566832
 30
0.0
  0
VERTEX
  5
389
  8
LAYER_1
 10
20.94706638677324
 20
32.19185470984498
 30
0.0
  0
VERTEX
  5
38A
  8
LAYER_1
 10
20.77701036159839
 20
31.7315004395468
 30
0.0
  0
VERTEX
  5
38B
  8
LAYER_1
 10
20.67781015043039
 20
31.48497226110252
 30
0.0
  0
VERTEX
  5
38C
  8
LAYER_1
 10
20.06866093387134
 20
30.28148136178656
 30
0.0
  0
VERTEX
  5
38D
  8
LAYER_1
 10
19.63804789344604
 20
29.47752852234197
 30
0.0
  0
VERTEX
  5
38E
  8
LAYER_1
 10
19.39558573573183
 20
28.94925385424709
 30
0.0
  0
VERTEX
  5
38F
  8
LAYER_1
 10
19.32952730252091
 20
28.78196687601705
 30
0.0
  0
VERTEX
  5
390
  8
LAYER_1
 10
19.24409625161341
 20
28.55297586469063
 30
0.0
  0
VERTEX
  5
391
  8
LAYER_1
 10
19.17266764786619
 20
28.33314771961845
 30
0.0
  0
VERTEX
  5
392
  8
LAYER_1
 10
19.11471554106775
 20
28.1196388504091
 30
0.0
  0
VERTEX
  5
393
  8
LAYER_1
 10
19.06971398100657
 20
27.90960566667118
 30
0.0
  0
VERTEX
  5
394
  8
LAYER_1
 10
19.03713701747115
 20
27.70020457801327
 30
0.0
  0
VERTEX
  5
395
  8
LAYER_1
 10
19.01645870024999
 20
27.48859199404399
 30
0.0
  0
VERTEX
  5
396
  8
LAYER_1
 10
19.00715307913159
 20
27.27192432437192
 30
0.0
  0
VERTEX
  5
397
  8
LAYER_1
 10
19.00869420390444
 20
27.04735797860565
 30
0.0
  0
VERTEX
  5
398
  8
LAYER_1
 10
19.01911114373527
 20
26.69528193704227
 30
0.0
  0
VERTEX
  5
399
  8
LAYER_1
 10
19.0908088463523
 20
26.30788051377269
 30
0.0
  0
VERTEX
  5
39A
  8
LAYER_1
 10
19.65497015345798
 20
24.42370086423429
 30
0.0
  0
VERTEX
  5
39B
  8
LAYER_1
 10
19.69237157363339
 20
24.26521846380583
 30
0.0
  0
VERTEX
  5
39C
  8
LAYER_1
 10
19.73947743793929
 20
24.00760215378221
 30
0.0
  0
VERTEX
  5
39D
  8
LAYER_1
 10
19.75887285067267
 20
23.76257241867721
 30
0.0
  0
VERTEX
  5
39E
  8
LAYER_1
 10
19.75804409158397
 20
23.65059689253361
 30
0.0
  0
VERTEX
  5
39F
  8
LAYER_1
 10
19.75012566426332
 20
23.54875126109697
 30
0.0
  0
VERTEX
  5
3A0
  8
LAYER_1
 10
19.73506355026444
 20
23.45936327469308
 30
0.0
  0
VERTEX
  5
3A1
  8
LAYER_1
 10
19.71280373114105
 20
23.38476068364769
 30
0.0
  0
VERTEX
  5
3A2
  8
LAYER_1
 10
19.66553086641146
 20
23.29652372470865
 30
0.0
  0
VERTEX
  5
3A3
  8
LAYER_1
 10
19.59805001509454
 20
23.21434228934929
 30
0.0
  0
VERTEX
  5
3A4
  8
LAYER_1
 10
19.51842792205498
 20
23.14644623860746
 30
0.0
  0
VERTEX
  5
3A5
  8
LAYER_1
 10
19.43473133215748
 20
23.10106543352101
 30
0.0
  0
VERTEX
  5
3A6
  8
LAYER_1
 10
19.37740322015672
 20
23.08371595995779
 30
0.0
  0
VERTEX
  5
3A7
  8
LAYER_1
 10
19.30467953235638
 20
23.07443341327266
 30
0.0
  0
VERTEX
  5
3A8
  8
LAYER_1
 10
19.01211159768158
 20
23.07348118256827
 30
0.0
  0
VERTEX
  5
3A9
  8
LAYER_1
 10
18.67753764122149
 20
23.07916648234577
 30
0.0
  0
VERTEX
  5
3AA
  8
LAYER_1
 10
16.58335322423293
 20
23.24388743882239
 30
0.0
  0
VERTEX
  5
3AB
  8
LAYER_1
 10
16.1248626286568
 20
23.27030117222714
 30
0.0
  0
VERTEX
  5
3AC
  8
LAYER_1
 10
15.59869347045529
 20
23.28913073812885
 30
0.0
  0
VERTEX
  5
3AD
  8
LAYER_1
 10
14.95320123115259
 20
23.29458876954542
 30
0.0
  0
VERTEX
  5
3AE
  8
LAYER_1
 10
14.2400304292245
 20
23.29246263345896
 30
0.0
  0
VERTEX
  5
3AF
  8
LAYER_1
 10
14.09247939177439
 20
23.26332816172715
 30
0.0
  0
VERTEX
  5
3B0
  8
LAYER_1
 10
13.95414295716588
 20
23.22951257429368
 30
0.0
  0
VERTEX
  5
3B1
  8
LAYER_1
 10
13.8317325701373
 20
23.18453893115392
 30
0.0
  0
VERTEX
  5
3B2
  8
LAYER_1
 10
13.722397192076
 20
23.12589193431168
 30
0.0
  0
VERTEX
  5
3B3
  8
LAYER_1
 10
13.62328578436933
 20
23.05105628577074
 30
0.0
  0
VERTEX
  5
3B4
  8
LAYER_1
 10
13.53154730840464
 20
22.9575166875349
 30
0.0
  0
VERTEX
  5
3B5
  8
LAYER_1
 10
13.44433072556929
 20
22.84275784160795
 30
0.0
  0
VERTEX
  5
3B6
  8
LAYER_1
 10
13.35878499725062
 20
22.70426444999368
 30
0.0
  0
VERTEX
  5
3B7
  8
LAYER_1
 10
13.27205908483598
 20
22.53952121469589
 30
0.0
  0
VERTEX
  5
3B8
  8
LAYER_1
 10
13.15899192393018
 20
22.31060219185477
 30
0.0
  0
VERTEX
  5
3B9
  8
LAYER_1
 10
13.09803831852768
 20
22.14331521362472
 30
0.0
  0
VERTEX
  5
3BA
  8
LAYER_1
 10
12.95709686589488
 20
21.72069547914882
 30
0.0
  0
VERTEX
  5
3BB
  8
LAYER_1
 10
12.71022850100904
 20
20.8842605879986
 30
0.0
  0
VERTEX
  5
3BC
  8
LAYER_1
 10
12.54334798335347
 20
20.30315845309423
 30
0.0
  0
VERTEX
  5
3BD
  8
LAYER_1
 10
12.37161881131092
 20
19.81010209620567
 30
0.0
  0
VERTEX
  5
3BE
  8
LAYER_1
 10
12.30775363952822
 20
19.66042427357879
 30
0.0
  0
VERTEX
  5
3BF
  8
LAYER_1
 10
12.20550324556628
 20
19.44198897887857
 30
0.0
  0
VERTEX
  5
3C0
  8
LAYER_1
 10
12.03960199015553
 20
19.11446724520005
 30
0.0
  0
VERTEX
  5
3C1
  8
LAYER_1
 10
11.55067449711577
 20
18.19752913916924
 30
0.0
  0
VERTEX
  5
3C2
  8
LAYER_1
 10
11.22094541583084
 20
17.59219566769187
 30
0.0
  0
VERTEX
  5
3C3
  8
LAYER_1
 10
11.04549960235301
 20
17.19844065126056
 30
0.0
  0
VERTEX
  5
3C4
  8
LAYER_1
 10
11.00594605929706
 20
17.07792976987694
 30
0.0
  0
VERTEX
  5
3C5
  8
LAYER_1
 10
10.9753458491366
 20
16.95738630029803
 30
0.0
  0
VERTEX
  5
3C6
  8
LAYER_1
 10
10.96640222450796
 20
16.84687208914179
 30
0.0
  0
VERTEX
  5
3C7
  8
LAYER_1
 10
10.97914900368717
 20
16.74449406361168
 30
0.0
  0
VERTEX
  5
3C8
  8
LAYER_1
 10
11.01362000495022
 20
16.64835915091113
 30
0.0
  0
VERTEX
  5
3C9
  8
LAYER_1
 10
11.07036624410436
 20
16.49682450603791
 30
0.0
  0
VERTEX
  5
3CA
  8
LAYER_1
 10
11.14033199969804
 20
16.26976230544314
 30
0.0
  0
VERTEX
  5
3CB
  8
LAYER_1
 10
11.45608675305036
 20
15.04682550555018
 30
0.0
  0
VERTEX
  5
3CC
  8
LAYER_1
 10
11.69246185273841
 20
14.10473568078097
 30
0.0
  0
VERTEX
  5
3CD
  8
LAYER_1
 10
11.83823336273779
 20
13.61167932389242
 30
0.0
  0
VERTEX
  5
3CE
  8
LAYER_1
 10
11.89604299941167
 20
13.4796106568687
 30
0.0
  0
VERTEX
  5
3CF
  8
LAYER_1
 10
11.99262292592309
 20
13.26830078963075
 30
0.0
  0
VERTEX
  5
3D0
  8
LAYER_1
 10
12.03068730347674
 20
13.16578248685359
 30
0.0
  0
VERTEX
  5
3D1
  8
LAYER_1
 10
12.06776039995089
 20
13.03057718898805
 30
0.0
  0
VERTEX
  5
3D2
  8
LAYER_1
 10
12.15074798169939
 20
12.67768480428463
 30
0.0
  0
VERTEX
  5
3D3
  8
LAYER_1
 10
12.19736837925763
 20
12.48327482000968
 30
0.0
  0
VERTEX
  5
3D4
  8
LAYER_1
 10
12.24139126826554
 20
12.39864259082795
 30
0.0
  0
VERTEX
  5
3D5
  8
LAYER_1
 10
12.28803624847458
 20
12.32460370851932
 30
0.0
  0
VERTEX
  5
3D6
  8
LAYER_1
 10
12.34222839561806
 20
12.26551562791278
 30
0.0
  0
VERTEX
  5
3D7
  8
LAYER_1
 10
12.4013392324461
 20
12.22371874484415
 30
0.0
  0
VERTEX
  5
3D8
  8
LAYER_1
 10
12.46274028170887
 20
12.20155345514924
 30
0.0
  0
VERTEX
  5
3D9
  8
LAYER_1
 10
12.51425133189933
 20
12.19752246097741
 30
0.0
  0
VERTEX
  5
3DA
  8
LAYER_1
 10
12.57157193559666
 20
12.20341109004061
 30
0.0
  0
VERTEX
  5
3DB
  8
LAYER_1
 10
12.63407848407204
 20
12.21895297382193
 30
0.0
  0
VERTEX
  5
3DC
  8
LAYER_1
 10
12.7011473685966
 20
12.24388174380442
 30
0.0
  0
VERTEX
  5
3DD
  8
LAYER_1
 10
12.8464777108779
 20
12.32083446830524
 30
0.0
  0
VERTEX
  5
3DE
  8
LAYER_1
 10
13.00257409260981
 20
12.43213831540767
 30
0.0
  0
VERTEX
  5
3DF
  8
LAYER_1
 10
13.14376345596333
 20
12.55555479592892
 30
0.0
  0
VERTEX
  5
3E0
  8
LAYER_1
 10
13.27056106518645
 20
12.6885147325159
 30
0.0
  0
VERTEX
  5
3E1
  8
LAYER_1
 10
13.38291964902922
 20
12.83093650047016
 30
0.0
  0
VERTEX
  5
3E2
  8
LAYER_1
 10
13.48079193624167
 20
12.98273847509325
 30
0.0
  0
VERTEX
  5
3E3
  8
LAYER_1
 10
13.56413065557386
 20
13.14383903168674
 30
0.0
  0
VERTEX
  5
3E4
  8
LAYER_1
 10
13.63288853577584
 20
13.31415654555217
 30
0.0
  0
VERTEX
  5
3E5
  8
LAYER_1
 10
13.68701830559764
 20
13.49360939199109
 30
0.0
  0
VERTEX
  5
3E6
  8
LAYER_1
 10
13.72647269378932
 20
13.68211594630507
 30
0.0
  0
VERTEX
  5
3E7
  8
LAYER_1
 10
13.74697407233594
 20
13.80538003552721
 30
0.0
  0
VERTEX
  5
3E8
  8
LAYER_1
 10
13.74132104287896
 20
14.59779203766953
 30
0.0
  0
VERTEX
  5
3E9
  8
LAYER_1
 10
13.70361139671187
 20
14.77388359370116
 30
0.0
  0
VERTEX
  5
3EA
  8
LAYER_1
 10
13.66017329459182
 20
14.94769834094144
 30
0.0
  0
VERTEX
  5
3EB
  8
LAYER_1
 10
13.60869097772931
 20
15.1183158673258
 30
0.0
  0
VERTEX
  5
3EC
  8
LAYER_1
 10
13.55148020491383
 20
15.28665658491883
 30
0.0
  0
VERTEX
  5
3ED
  8
LAYER_1
 10
13.51247861678982
 20
15.34976248011868
 30
0.0
  0
VERTEX
  5
3EE
  8
LAYER_1
 10
13.46051018298416
 20
15.41340131745107
 30
0.0
  0
VERTEX
  5
3EF
  8
LAYER_1
 10
13.42931726866115
 20
15.43567830665947
 30
0.0
  0
VERTEX
  5
3F0
  8
LAYER_1
 10
13.39280542987759
 20
15.45223963249002
 30
0.0
  0
VERTEX
  5
3F1
  8
LAYER_1
 10
13.29828560038757
 20
15.47015316279971
 30
0.0
  0
VERTEX
  5
3F2
  8
LAYER_1
 10
13.16587193743158
 20
15.47101764594431
 30
0.0
  0
VERTEX
  5
3F3
  8
LAYER_1
 10
12.80171594004783
 20
15.463192573487
 30
0.0
  0
VERTEX
  5
3F4
  8
LAYER_1
 10
12.73500226075245
 20
15.47365327125053
 30
0.0
  0
VERTEX
  5
3F5
  8
LAYER_1
 10
12.70507843173531
 20
15.49585897343083
 30
0.0
  0
VERTEX
  5
3F6
  8
LAYER_1
 10
12.68670747938657
 20
15.54495084339448
 30
0.0
  0
VERTEX
  5
3F7
  8
LAYER_1
 10
12.688264754172
 20
15.62792764045455
 30
0.0
  0
VERTEX
  5
3F8
  8
LAYER_1
 10
12.70542401291171
 20
15.72178797225204
 30
0.0
  0
VERTEX
  5
3F9
  8
LAYER_1
 10
12.74233391925925
 20
15.86835395725649
 30
0.0
  0
VERTEX
  5
3FA
  8
LAYER_1
 10
12.8663356135154
 20
16.29034604509208
 30
0.0
  0
VERTEX
  5
3FB
  8
LAYER_1
 10
13.04212971441562
 20
16.83539022037298
 30
0.0
  0
VERTEX
  5
3FC
  8
LAYER_1
 10
13.25157609943508
 20
17.44497279951082
 30
0.0
  0
VERTEX
  5
3FD
  8
LAYER_1
 10
13.54835652084867
 20
18.26049640312736
 30
0.0
  0
VERTEX
  5
3FE
  8
LAYER_1
 10
13.80221389015789
 20
18.9032305826428
 30
0.0
  0
VERTEX
  5
3FF
  8
LAYER_1
 10
14.05887902864068
 20
19.51074645095191
 30
0.0
  0
VERTEX
  5
400
  8
LAYER_1
 10
14.33999105157339
 20
20.09649963849616
 30
0.0
  0
VERTEX
  5
401
  8
LAYER_1
 10
14.50416776327194
 20
20.41811549199298
 30
0.0
  0
VERTEX
  5
402
  8
LAYER_1
 10
14.61226773462634
 20
20.58946293013069
 30
0.0
  0
VERTEX
  5
403
  8
LAYER_1
 10
14.75565576094334
 20
20.79951373627269
 30
0.0
  0
VERTEX
  5
404
  8
LAYER_1
 10
14.88910571904764
 20
20.96011865449394
 30
0.0
  0
VERTEX
  5
405
  8
LAYER_1
 10
14.95142050693881
 20
21.02115612239513
 30
0.0
  0
VERTEX
  5
406
  8
LAYER_1
 10
15.01043067907935
 20
21.06896477842916
 30
0.0
  0
VERTEX
  5
407
  8
LAYER_1
 10
15.06586286923677
 20
21.10325550930036
 30
0.0
  0
VERTEX
  5
408
  8
LAYER_1
 10
15.11744371117859
 20
21.12373920171307
 30
0.0
  0
VERTEX
  5
409
  8
LAYER_1
 10
15.20980364642392
 20
21.13703814760778
 30
0.0
  0
VERTEX
  5
40A
  8
LAYER_1
 10
15.33076149552952
 20
21.1342721393593
 30
0.0
  0
VERTEX
  5
40B
  8
LAYER_1
 10
15.48089341144806
 20
21.11531266056207
 30
0.0
  0
VERTEX
  5
40C
  8
LAYER_1
 10
15.66077554713221
 20
21.08003119481053
 30
0.0
  0
VERTEX
  5
40D
  8
LAYER_1
 10
15.87098405553466
 20
21.02829922569913
 30
0.0
  0
VERTEX
  5
40E
  8
LAYER_1
 10
16.11209508960809
 20
20.95998823682232
 30
0.0
  0
VERTEX
  5
40F
  8
LAYER_1
 10
16.68932934657856
 20
20.77311513415021
 30
0.0
  0
VERTEX
  5
410
  8
LAYER_1
 10
17.09271363693685
 20
20.63442860327414
 30
0.0
  0
VERTEX
  5
411
  8
LAYER_1
 10
17.48891963800801
 20
20.48181296712912
 30
0.0
  0
VERTEX
  5
412
  8
LAYER_1
 10
18.26203477176946
 20
20.17627657978611
 30
0.0
  0
VERTEX
  5
413
  8
LAYER_1
 10
19.61082288818911
 20
19.62961529794488
 30
0.0
  0
VERTEX
  5
414
  8
LAYER_1
 10
20.50416938506851
 20
19.27421794674587
 30
0.0
  0
VERTEX
  5
415
  8
LAYER_1
 10
20.7459771246309
 20
19.18417435693064
 30
0.0
  0
VERTEX
  5
416
  8
LAYER_1
 10
20.85636566714238
 20
19.15522167306735
 30
0.0
  0
VERTEX
  5
417
  8
LAYER_1
 10
20.96565419935769
 20
19.1358356994624
 30
0.0
  0
VERTEX
  5
418
  8
LAYER_1
 10
21.07239597326223
 20
19.13859869931852
 30
0.0
  0
VERTEX
  5
419
  8
LAYER_1
 10
21.170918648728
 20
19.15666686003896
 30
0.0
  0
VERTEX
  5
41A
  8
LAYER_1
 10
21.28575456194893
 20
19.18906838762158
 30
0.0
  0
VERTEX
  5
41B
  8
LAYER_1
 10
21.55114020311163
 20
19.29107232597588
 30
0.0
  0
VERTEX
  5
41C
  8
LAYER_1
 10
21.84210109966107
 20
19.43301207958645
 30
0.0
  0
VERTEX
  5
41D
  8
LAYER_1
 10
22.132185454508
 20
19.6032892136583
 30
0.0
  0
VERTEX
  5
41E
  8
LAYER_1
 10
22.30348841151868
 20
19.71344113196786
 30
0.0
  0
VERTEX
  5
41F
  8
LAYER_1
 10
22.40110640931323
 20
19.75020124147321
 30
0.0
  0
VERTEX
  5
420
  8
LAYER_1
 10
22.50807242792508
 20
19.78527593215405
 30
0.0
  0
VERTEX
  5
421
  8
LAYER_1
 10
22.61262254887346
 20
19.80900393536734
 30
0.0
  0
VERTEX
  5
422
  8
LAYER_1
 10
22.71484778340484
 20
19.82138096552117
 30
0.0
  0
VERTEX
  5
423
  8
LAYER_1
 10
22.81483914276567
 20
19.82240273702359
 30
0.0
  0
VERTEX
  5
424
  8
LAYER_1
 10
22.91268763820241
 20
19.81206496428269
 30
0.0
  0
VERTEX
  5
425
  8
LAYER_1
 10
23.00848428096152
 20
19.79036336170654
 30
0.0
  0
VERTEX
  5
426
  8
LAYER_1
 10
23.10232008228947
 20
19.7572936437032
 30
0.0
  0
VERTEX
  5
427
  8
LAYER_1
 10
23.19428605343271
 20
19.71285152468076
 30
0.0
  0
VERTEX
  5
428
  8
LAYER_1
 10
23.2900147513932
 20
19.64279618223486
 30
0.0
  0
VERTEX
  5
429
  8
LAYER_1
 10
23.40617038202724
 20
19.53427688352398
 30
0.0
  0
VERTEX
  5
42A
  8
LAYER_1
 10
23.51834021958875
 20
19.41197337193511
 30
0.0
  0
VERTEX
  5
42B
  8
LAYER_1
 10
23.60211153833169
 20
19.30056539085525
 30
0.0
  0
VERTEX
  5
42C
  8
LAYER_1
 10
23.69574916249896
 20
19.13419186334207
 30
0.0
  0
VERTEX
  5
42D
  8
LAYER_1
 10
23.78352290079955
 20
18.94348037058528
 30
0.0
  0
VERTEX
  5
42E
  8
LAYER_1
 10
23.86449868626643
 20
18.73164466717517
 30
0.0
  0
VERTEX
  5
42F
  8
LAYER_1
 10
23.93774245193255
 20
18.50189850770204
 30
0.0
  0
VERTEX
  5
430
  8
LAYER_1
 10
24.00232013083086
 20
18.25745564675617
 30
0.0
  0
VERTEX
  5
431
  8
LAYER_1
 10
24.05729765599431
 20
18.00152983892785
 30
0.0
  0
VERTEX
  5
432
  8
LAYER_1
 10
24.10174096045587
 20
17.73733483880738
 30
0.0
  0
VERTEX
  5
433
  8
LAYER_1
 10
24.13471597724848
 20
17.46808440098504
 30
0.0
  0
VERTEX
  5
434
  8
LAYER_1
 10
24.14706105646967
 20
17.19937969220303
 30
0.0
  0
VERTEX
  5
435
  8
LAYER_1
 10
24.14968310368796
 20
16.8253502214696
 30
0.0
  0
VERTEX
  5
436
  8
LAYER_1
 10
24.14538117357085
 20
16.37631675358896
 30
0.0
  0
VERTEX
  5
437
  8
LAYER_1
 10
24.11766111646899
 20
16.15620230854942
 30
0.0
  0
VERTEX
  5
438
  8
LAYER_1
 10
24.04050118642275
 20
15.66167771558753
 30
0.0
  0
VERTEX
  5
439
  8
LAYER_1
 10
23.93281143551223
 20
15.16193150508522
 30
0.0
  0
VERTEX
  5
43A
  8
LAYER_1
 10
23.79425804908494
 20
14.6555998073691
 30
0.0
  0
VERTEX
  5
43B
  8
LAYER_1
 10
23.62450721248841
 20
14.14131875276576
 30
0.0
  0
VERTEX
  5
43C
  8
LAYER_1
 10
23.47501803953953
 20
13.73943316893924
 30
0.0
  0
VERTEX
  5
43D
  8
LAYER_1
 10
23.30656860454593
 20
13.32634287604332
 30
0.0
  0
VERTEX
  5
43E
  8
LAYER_1
 10
23.08741196746457
 20
12.82734297442546
 30
0.0
  0
VERTEX
  5
43F
  8
LAYER_1
 10
22.7858011882524
 20
12.16772856443308
 30
0.0
  0
VERTEX
  5
440
  8
LAYER_1
 10
22.58237411314393
 20
11.72749967435401
 30
0.0
  0
VERTEX
  5
441
  8
LAYER_1
 10
22.50305656974355
 20
11.52499438491764
 30
0.0
  0
VERTEX
  5
442
  8
LAYER_1
 10
22.42877605766422
 20
11.32084620539938
 30
0.0
  0
VERTEX
  5
443
  8
LAYER_1
 10
22.37105734290212
 20
11.12737661382828
 30
0.0
  0
VERTEX
  5
444
  8
LAYER_1
 10
22.3293920248898
 20
10.93938845446667
 30
0.0
  0
VERTEX
  5
445
  8
LAYER_1
 10
22.30327170305977
 20
10.75168457157689
 30
0.0
  0
VERTEX
  5
446
  8
LAYER_1
 10
22.29218797684456
 20
10.55906780942126
 30
0.0
  0
VERTEX
  5
447
  8
LAYER_1
 10
22.29563244567669
 20
10.35634101226211
 30
0.0
  0
VERTEX
  5
448
  8
LAYER_1
 10
22.3130967089887
 20
10.13830702436177
 30
0.0
  0
VERTEX
  5
449
  8
LAYER_1
 10
22.34407236621311
 20
9.899768689982569
 30
0.0
  0
VERTEX
  5
44A
  8
LAYER_1
 10
22.39105321078365
 20
9.58642508748311
 30
0.0
  0
VERTEX
  5
44B
  8
LAYER_1
 10
22.37267870426492
 20
9.459539799903501
 30
0.0
  0
VERTEX
  5
44C
  8
LAYER_1
 10
22.35159103802877
 20
9.35497407603037
 30
0.0
  0
VERTEX
  5
44D
  8
LAYER_1
 10
22.31101395214024
 20
9.214698495459537
 30
0.0
  0
VERTEX
  5
44E
  8
LAYER_1
 10
22.148188814894
 20
8.767374443245062
 30
0.0
  0
VERTEX
  5
44F
  8
LAYER_1
 10
21.83779787950206
 20
7.998281001300652
 30
0.0
  0
VERTEX
  5
450
  8
LAYER_1
 10
21.33343573294029
 20
6.788131527666889
 30
0.0
  0
VERTEX
  5
451
  8
LAYER_1
 10
20.90204286204878
 20
5.749191347080291
 30
0.0
  0
VERTEX
  5
452
  8
LAYER_1
 10
20.69912456207776
 20
5.245057228413051
 30
0.0
  0
VERTEX
  5
453
  8
LAYER_1
 10
20.61955426043163
 20
5.062303014416087
 30
0.0
  0
VERTEX
  5
454
  8
LAYER_1
 10
20.52266443341768
 20
4.868774376480251
 30
0.0
  0
VERTEX
  5
455
  8
LAYER_1
 10
20.41581966384284
 20
4.678350404542631
 30
0.0
  0
VERTEX
  5
456
  8
LAYER_1
 10
20.30638453451404
 20
4.504910188540313
 30
0.0
  0
VERTEX
  5
457
  8
LAYER_1
 10
20.14463530701805
 20
4.278028468090811
 30
0.0
  0
VERTEX
  5
458
  8
LAYER_1
 10
19.95295399621515
 20
4.040667442680598
 30
0.0
  0
VERTEX
  5
459
  8
LAYER_1
 10
19.68925863166702
 20
3.743423553861174
 30
0.0
  0
VERTEX
  5
45A
  8
LAYER_1
 10
19.31146724293534
 20
3.336893243184041
 30
0.0
  0
VERTEX
  5
45B
  8
LAYER_1
 10
19.06493906449107
 20
3.074561349081643
 30
0.0
  0
VERTEX
  5
45C
  8
LAYER_1
 10
18.97091640193361
 20
2.928304988514513
 30
0.0
  0
VERTEX
  5
45D
  8
LAYER_1
 10
18.86564744934588
 20
2.749457174184839
 30
0.0
  0
VERTEX
  5
45E
  8
LAYER_1
 10
18.76631960129125
 20
2.550756958723309
 30
0.0
  0
VERTEX
  5
45F
  8
LAYER_1
 10
18.67564123792427
 20
2.338068346928524
 30
0.0
  0
VERTEX
  5
460
  8
LAYER_1
 10
18.59632073939947
 20
2.117255343599086
 30
0.0
  0
VERTEX
  5
461
  8
LAYER_1
 10
18.50871204865643
 20
1.848763380979762
 30
0.0
  0
VERTEX
  5
462
  8
LAYER_1
 10
18.41852168798575
 20
1.415152547159993
 30
0.0
  0
VERTEX
  5
463
  8
LAYER_1
 10
18.43700214838904
 20
1.396672086752403
 30
0.0
  0
VERTEX
  5
464
  8
LAYER_1
 10
18.85662554005903
 20
1.334461296015126
 30
0.0
  0
VERTEX
  5
465
  8
LAYER_1
 10
19.73408697741125
 20
1.210197928645048
 30
0.0
  0
VERTEX
  5
466
  8
LAYER_1
 10
20.44725777933934
 20
1.119857521028007
 30
0.0
  0
VERTEX
  5
467
  8
LAYER_1
 10
20.68965881193913
 20
1.099879240395388
 30
0.0
  0
VERTEX
  5
468
  8
LAYER_1
 10
20.91390040282315
 20
1.091569690043768
 30
0.0
  0
VERTEX
  5
469
  8
LAYER_1
 10
21.1252102700611
 20
1.091569690043768
 30
0.0
  0
VERTEX
  5
46A
  8
LAYER_1
 10
21.18474908801774
 20
1.126788001250093
 30
0.0
  0
VERTEX
  5
46B
  8
LAYER_1
 10
21.23935980924632
 20
1.167047732013158
 30
0.0
  0
VERTEX
  5
46C
  8
LAYER_1
 10
21.28538425073851
 20
1.218314564845814
 30
0.0
  0
VERTEX
  5
46D
  8
LAYER_1
 10
21.32316009181976
 20
1.281047871590888
 30
0.0
  0
VERTEX
  5
46E
  8
LAYER_1
 10
21.35302501181553
 20
1.355707024091208
 30
0.0
  0
VERTEX
  5
46F
  8
LAYER_1
 10
21.38138927396058
 20
1.443752802107021
 30
0.0
  0
VERTEX
  5
470
  8
LAYER_1
 10
21.49500253772752
 20
2.077682403820877
 30
0.0
  0
VERTEX
  5
471
  8
LAYER_1
 10
21.49365231104372
 20
2.280187693257247
 30
0.0
  0
VERTEX
  5
472
  8
LAYER_1
 10
21.48401937103007
 20
2.470410142525741
 30
0.0
  0
VERTEX
  5
473
  8
LAYER_1
 10
21.443454182595
 20
2.614761649717338
 30
0.0
  0
VERTEX
  5
474
  8
LAYER_1
 10
21.38995472889645
 20
2.766790806802773
 30
0.0
  0
VERTEX
  5
475
  8
LAYER_1
 10
21.35191979422104
 20
2.895167821230338
 30
0.0
  0
VERTEX
  5
476
  8
LAYER_1
 10
21.32939428148067
 20
3.00485687056935
 30
0.0
  0
VERTEX
  5
477
  8
LAYER_1
 10
21.32242309358719
 20
3.100822132389127
 30
0.0
  0
VERTEX
  5
478
  8
LAYER_1
 10
21.33105113345248
 20
3.188027784258985
 30
0.0
  0
VERTEX
  5
479
  8
LAYER_1
 10
21.3553233039884
 20
3.271438003748241
 30
0.0
  0
VERTEX
  5
47A
  8
LAYER_1
 10
21.39528450810682
 20
3.356016968426212
 30
0.0
  0
VERTEX
  5
47B
  8
LAYER_1
 10
21.45097964871961
 20
3.446728855862214
 30
0.0
  0
VERTEX
  5
47C
  8
LAYER_1
 10
21.5380099857127
 20
3.556083990361913
 30
0.0
  0
VERTEX
  5
47D
  8
LAYER_1
 10
21.65852808917646
 20
3.682189367959127
 30
0.0
  0
VERTEX
  5
47E
  8
LAYER_1
 10
21.78649888247169
 20
3.799537488828592
 30
0.0
  0
VERTEX
  5
47F
  8
LAYER_1
 10
21.89588728895919
 20
3.882620853145049
 30
0.0
  0
VERTEX
  5
480
  8
LAYER_1
 10
22.07905698449768
 20
3.997080364565607
 30
0.0
  0
VERTEX
  5
481
  8
LAYER_1
 10
22.12450082256299
 20
4.027981053989972
 30
0.0
  0
VERTEX
  5
482
  8
LAYER_1
 10
22.15449720158197
 20
4.057607790852542
 30
0.0
  0
VERTEX
  5
483
  8
LAYER_1
 10
22.17552260290517
 20
4.094390270228365
 30
0.0
  0
VERTEX
  5
484
  8
LAYER_1
 10
22.1940535078831
 20
4.14675818719249
 30
0.0
  0
VERTEX
  5
485
  8
LAYER_1
 10
22.2239565651185
 20
4.243608543009883
 30
0.0
  0
VERTEX
  5
486
  8
LAYER_1
 10
22.242217637157
 20
5.317767034802806
 30
0.0
  0
VERTEX
  5
487
  8
LAYER_1
 10
22.26998073802443
 20
5.513316860690697
 30
0.0
  0
VERTEX
  5
488
  8
LAYER_1
 10
22.30564852645787
 20
5.741007541727215
 30
0.0
  0
VERTEX
  5
489
  8
LAYER_1
 10
22.34594943248777
 20
5.948392333639251
 30
0.0
  0
VERTEX
  5
48A
  8
LAYER_1
 10
22.39307017376633
 20
6.142072228061032
 30
0.0
  0
VERTEX
  5
48B
  8
LAYER_1
 10
22.44919746794575
 20
6.328648216626776
 30
0.0
  0
VERTEX
  5
48C
  8
LAYER_1
 10
22.51651803267823
 20
6.51472129097071
 30
0.0
  0
VERTEX
  5
48D
  8
LAYER_1
 10
22.59721858561597
 20
6.706892442727056
 30
0.0
  0
VERTEX
  5
48E
  8
LAYER_1
 10
22.80750652671602
 20
7.135932945013876
 30
0.0
  0
VERTEX
  5
48F
  8
LAYER_1
 10
22.99797827644715
 20
7.478915794149669
 30
0.0
  0
VERTEX
  5
490
  8
LAYER_1
 10
23.23719872851019
 20
7.867786960837448
 30
0.0
  0
VERTEX
  5
491
  8
LAYER_1
 10
23.55055000878817
 20
8.342201052464919
 30
0.0
  0
VERTEX
  5
492
  8
LAYER_1
 10
23.96341424316413
 20
8.94181267641979
 30
0.0
  0
VERTEX
  5
493
  8
LAYER_1
 10
24.32934405592609
 20
9.473527757149194
 30
0.0
  0
VERTEX
  5
494
  8
LAYER_1
 10
24.44871499246545
 20
9.67430101576093
 30
0.0
  0
VERTEX
  5
495
  8
LAYER_1
 10
24.54264113344601
 20
9.876897121070199
 30
0.0
  0
VERTEX
  5
496
  8
LAYER_1
 10
24.61423577449173
 20
10.08911841165692
 30
0.0
  0
VERTEX
  5
497
  8
LAYER_1
 10
24.66661221122655
 20
10.318767226101
 30
0.0
  0
VERTEX
  5
498
  8
LAYER_1
 10
24.75292846053798
 20
10.78719964109096
 30
0.0
  0
VERTEX
  5
499
  8
LAYER_1
 10
24.81363514559052
 20
11.11475881125562
 30
0.0
  0
VERTEX
  5
49A
  8
LAYER_1
 10
24.87411559991141
 20
11.32427888698742
 30
0.0
  0
VERTEX
  5
49B
  8
LAYER_1
 10
24.99744577031741
 20
11.7069948554842
 30
0.0
  0
VERTEX
  5
49C
  8
LAYER_1
 10
25.14391610585935
 20
12.07264745839573
 30
0.0
  0
VERTEX
  5
49D
  8
LAYER_1
 10
25.23202714341225
 20
12.27338349805206
 30
0.0
  0
VERTEX
  5
49E
  8
LAYER_1
 10
25.79856387459287
 20
13.40036945665447
 30
0.0
  0
VERTEX
  5
49F
  8
LAYER_1
 10
25.89382472607235
 20
13.62928847949558
 30
0.0
  0
VERTEX
  5
4A0
  8
LAYER_1
 10
26.11335299247722
 20
14.18397688099521
 30
0.0
  0
VERTEX
  5
4A1
  8
LAYER_1
 10
26.33419352408498
 20
14.78268817150274
 30
0.0
  0
VERTEX
  5
4A2
  8
LAYER_1
 10
26.61722438673759
 20
15.62792764045455
 30
0.0
  0
VERTEX
  5
4A3
  8
LAYER_1
 10
26.92654751280122
 20
16.61404035423165
 30
0.0
  0
VERTEX
  5
4A4
  8
LAYER_1
 10
27.11565076573264
 20
17.26835950453864
 30
0.0
  0
VERTEX
  5
4A5
  8
LAYER_1
 10
27.1818886385707
 20
17.50886349817131
 30
0.0
  0
VERTEX
  5
4A6
  8
LAYER_1
 10
29.78891482681713
 20
17.51549121788891
 30
0.0
  0
VERTEX
  5
4A7
  8
LAYER_1
 10
30.73980922938791
 20
17.55267510788553
 30
0.0
  0
VERTEX
  5
4A8
  8
LAYER_1
 10
31.6378761651492
 20
17.60525105641868
 30
0.0
  0
VERTEX
  5
4A9
  8
LAYER_1
 10
32.53594310091049
 20
17.67571803707062
 30
0.0
  0
VERTEX
  5
4AA
  8
LAYER_1
 10
32.96227041428195
 20
17.71942325745671
 30
0.0
  0
VERTEX
  5
4AB
  8
LAYER_1
 10
33.86914192784482
 20
17.82414279242933
 30
0.0
  0
VERTEX
  5
4AC
  8
LAYER_1
 10
34.74589212910741
 20
17.94673426777508
 30
0.0
  0
VERTEX
  5
4AD
  8
LAYER_1
 10
35.14209813017857
 20
18.00831142853431
 30
0.0
  0
VERTEX
  5
4AE
  8
LAYER_1
 10
35.32699426401178
 20
17.81157671288322
 30
0.0
  0
VERTEX
  5
4AF
  8
LAYER_1
 10
35.65172123341773
 20
17.4453080350934
 30
0.0
  0
VERTEX
  5
4B0
  8
LAYER_1
 10
35.96091127809746
 20
17.05742489021323
 30
0.0
  0
VERTEX
  5
4B1
  8
LAYER_1
 10
36.23511619463027
 20
16.67365142022981
 30
0.0
  0
VERTEX
  5
4B2
  8
LAYER_1
 10
36.35302166627262
 20
16.49134460769535
 30
0.0
  0
VERTEX
  5
4B3
  8
LAYER_1
 10
36.45488777959549
 20
16.31971176713022
 30
0.0
  0
VERTEX
  5
4B4
  8
LAYER_1
 10
36.59976345187582
 20
16.04144350156815
 30
0.0
  0
VERTEX
  5
4B5
  8
LAYER_1
 10
36.71345127912518
 20
15.76890767347481
 30
0.0
  0
VERTEX
  5
4B6
  8
LAYER_1
 10
36.80780587645164
 20
15.46951480204647
 30
0.0
  0
VERTEX
  5
4B7
  8
LAYER_1
 10
36.89468185896322
 20
15.11067540647939
 30
0.0
  0
VERTEX
  5
4B8
  8
LAYER_1
 10
37.03946271594117
 20
14.51663723288535
 30
0.0
  0
VERTEX
  5
4B9
  8
LAYER_1
 10
37.21904961452115
 20
13.90414244856499
 30
0.0
  0
VERTEX
  5
4BA
  8
LAYER_1
 10
37.43469612015168
 20
13.26923465521002
 30
0.0
  0
VERTEX
  5
4BB
  8
LAYER_1
 10
37.68765579828133
 20
12.60795745451215
 30
0.0
  0
VERTEX
  5
4BC
  8
LAYER_1
 10
37.90740019836326
 20
12.06207363081411
 30
0.0
  0
VERTEX
  5
4BD
  8
LAYER_1
 10
38.03033196834132
 20
11.83080082531117
 30
0.0
  0
VERTEX
  5
4BE
  8
LAYER_1
 10
38.37016989935019
 20
11.22328495700206
 30
0.0
  0
VERTEX
  5
4BF
  8
LAYER_1
 10
38.58707606038101
 20
10.84704189419588
 30
0.0
  0
VERTEX
  5
4C0
  8
LAYER_1
 10
38.84516169229654
 20
10.318767226101
 30
0.0
  0
VERTEX
  5
4C1
  8
LAYER_1
 10
38.92579039345171
 20
10.11358925329918
 30
0.0
  0
VERTEX
  5
4C2
  8
LAYER_1
 10
39.03854185208318
 20
9.795513685270247
 30
0.0
  0
VERTEX
  5
4C3
  8
LAYER_1
 10
39.13080729726235
 20
9.469778278149452
 30
0.0
  0
VERTEX
  5
4C4
  8
LAYER_1
 10
39.20002424833687
 20
9.14667905323529
 30
0.0
  0
VERTEX
  5
4C5
  8
LAYER_1
 10
39.24363022465437
 20
8.836512031826265
 30
0.0
  0
VERTEX
  5
4C6
  8
LAYER_1
 10
39.25568122721578
 20
8.611368413510597
 30
0.0
  0
VERTEX
  5
4C7
  8
LAYER_1
 10
39.25795957593064
 20
8.337737220745202
 30
0.0
  0
VERTEX
  5
4C8
  8
LAYER_1
 10
39.25327861054266
 20
8.029576997689857
 30
0.0
  0
VERTEX
  5
4C9
  8
LAYER_1
 10
39.21757687205054
 20
7.793566490985863
 30
0.0
  0
VERTEX
  5
4CA
  8
LAYER_1
 10
39.15615981244805
 20
7.474295787593307
 30
0.0
  0
VERTEX
  5
4CB
  8
LAYER_1
 10
39.0561279405251
 20
7.070332971485641
 30
0.0
  0
VERTEX
  5
4CC
  8
LAYER_1
 10
38.91899247620552
 20
6.587329751564345
 30
0.0
  0
VERTEX
  5
4CD
  8
LAYER_1
 10
38.74626463941308
 20
6.030937836730893
 30
0.0
  0
VERTEX
  5
4CE
  8
LAYER_1
 10
38.53673679810346
 20
5.40581281281862
 30
0.0
  0
VERTEX
  5
4CF
  8
LAYER_1
 10
38.37872959685672
 20
4.97743387943038
 30
0.0
  0
VERTEX
  5
4D0
  8
LAYER_1
 10
38.21427755299561
 20
4.559357275453552
 30
0.0
  0
VERTEX
  5
4D1
  8
LAYER_1
 10
38.05100386995733
 20
4.170356370016191
 30
0.0
  0
VERTEX
  5
4D2
  8
LAYER_1
 10
37.89653175117905
 20
3.829204532246352
 30
0.0
  0
VERTEX
  5
4D3
  8
LAYER_1
 10
37.73060766442239
 20
3.489374875938912
 30
0.0
  0
VERTEX
  5
4D4
  8
LAYER_1
 10
37.66585307990587
 20
3.380246675649214
 30
0.0
  0
VERTEX
  5
4D5
  8
LAYER_1
 10
37.58502325717345
 20
3.267065056233929
 30
0.0
  0
VERTEX
  5
4D6
  8
LAYER_1
 10
37.49684556569086
 20
3.161144236170553
 30
0.0
  0
VERTEX
  5
4D7
  8
LAYER_1
 10
37.41004737492378
 20
3.073798433936582
 30
0.0
  0
VERTEX
  5
4D8
  8
LAYER_1
 10
37.32733447756166
 20
3.006946746895169
 30
0.0
  0
VERTEX
  5
4D9
  8
LAYER_1
 10
37.22917176508808
 20
2.941423993592
 30
0.0
  0
VERTEX
  5
4DA
  8
LAYER_1
 10
36.9624854268883
 20
2.799657783550545
 30
0.0
  0
VERTEX
  5
4DB
  8
LAYER_1
 10
36.88556888114376
 20
2.759843282783685
 30
0.0
  0
VERTEX
  5
4DC
  8
LAYER_1
 10
36.82392960466046
 20
2.719974705767673
 30
0.0
  0
VERTEX
  5
4DD
  8
LAYER_1
 10
36.7096905873648
 20
2.612893232590798
 30
0.0
  0
VERTEX
  5
4DE
  8
LAYER_1
 10
36.63811466683352
 20
2.526019412559096
 30
0.0
  0
VERTEX
  5
4DF
  8
LAYER_1
 10
36.56393914946506
 20
2.420076654710131
 30
0.0
  0
VERTEX
  5
4E0
  8
LAYER_1
 10
36.41135294960765
 20
2.157769946978953
 30
0.0
  0
VERTEX
  5
4E1
  8
LAYER_1
 10
36.25905923857464
 20
1.839544352234334
 30
0.0
  0
VERTEX
  5
4E2
  8
LAYER_1
 10
36.11418526714809
 20
1.478971113313346
 30
0.0
  0
VERTEX
  5
4E3
  8
LAYER_1
 10
35.96255000655899
 20
1.038741293545139
 30
0.0
  0
VERTEX
  5
4E4
  8
LAYER_1
 10
35.90809639891614
 20
0.8494428708111401
 30
0.0
  0
VERTEX
  5
4E5
  8
LAYER_1
 10
35.90809639891614
 20
0.8362369337979094
 30
0.0
  0
SEQEND
  5
4E6
  8
LAYER_1
  0
ENDSEC
  0
EOF
